<svg xmlns="http://www.w3.org/2000/svg" xmlns:xlink="http://www.w3.org/1999/xlink" viewBox="0 0 135.83 135.89"><defs><style>.cls-1{fill:none;}.cls-2{fill:#f7901e;}.cls-3{clip-path:url(#clip-path);}.cls-4{fill:#41b655;}.cls-5{fill:#fff;}</style><clipPath id="clip-path"><rect class="cls-1" x="0.06" y="0.06" width="135.76" height="135.76" rx="22.71"/></clipPath></defs><title>Av toTs</title><g id="Layer_2" data-name="Layer 2"><g id="Layer_1-2" data-name="Layer 1"><rect class="cls-2" x="0.06" y="0.06" width="135.76" height="135.76" rx="22.71"/><g class="cls-3"><polygon class="cls-4" points="135.76 0 0.13 135.89 0 0.13 135.76 0"/></g><path class="cls-5" d="M18.81,48.51l-2.13,6.6h-11L18.44,19.73H32.7L46.27,55.11H34.51l-2.28-6.6Zm10.88-8.19C27.49,34,26.22,29.93,25.37,27h-.16c-.73,2.93-2.22,8-4,13.35Z"/><path class="cls-5" d="M55.46,55.11,42.34,19.73h11.9l4.95,15.88C61,41.41,61.75,44.49,62.3,47h.1a117.5,117.5,0,0,1,3.44-11.91l4.6-15.34H82.18L68.83,55.11Z"/><path class="cls-5" d="M68.62,93.53H57.51V85.38h33.1v8.15h-11v27.22H68.62Z"/><path class="cls-5" d="M103.74,110.11c.71,2.34,2.44,4.09,6.82,4.09,3.89,0,5.1-1.22,5.1-3s-1.08-3-7.39-4.13C95.83,104.8,94,100.34,94,95.68c0-7,6.27-11.08,15.47-11.08,11.19,0,15.69,5.44,16.12,10.67H115c-.38-1.57-1.33-3.38-5.51-3.38-3,0-4.37,1-4.37,2.67s1.41,2.4,6.63,3.4c12.72,2.39,15.19,6.59,15.19,11.91,0,6.75-5.4,11.66-16.84,11.66-11.29,0-16.31-5-17.32-11.42Z"/></g></g></svg>