<?xml version="1.0" encoding="UTF-8"?>
<!DOCTYPE svg PUBLIC "-//W3C//DTD SVG 1.1//EN" "http://www.w3.org/Graphics/SVG/1.1/DTD/svg11.dtd">
<!-- Creator: CorelDRAW 2018 (64-Bit) -->
<svg xmlns="http://www.w3.org/2000/svg" xml:space="preserve" width="2.62459in" height="2.06237in" version="1.1" style="shape-rendering:geometricPrecision; text-rendering:geometricPrecision; image-rendering:optimizeQuality; fill-rule:evenodd; clip-rule:evenodd"
viewBox="0 0 7867.21 6181.98"
 xmlns:xlink="http://www.w3.org/1999/xlink">
 <defs>
  <style type="text/css">
   <![CDATA[
    .fil0 {fill:#008F4F}
   ]]>
  </style>
 </defs>
 <g id="Layer_x0020_1">
  <metadata id="CorelCorpID_0Corel-Layer"/>
  <path class="fil0" d="M-0 3830.01c0,461.42 29.63,661.34 210.84,1070.46 92.17,208.1 288.27,473.13 442.9,627.76 360.85,360.86 938.14,653.74 1487.6,653.74l3843.87 0c493.7,0 981.15,-252.73 1303.23,-574.82 553.95,-553.95 733.44,-1394.5 437.16,-2130.93 -148.74,-369.74 -392.13,-652.77 -712.08,-885.14 -92.32,-67.04 -423.12,-250.07 -554.41,-252.98 -9.03,-405.24 -235.29,-966.84 -478.69,-1294.06 -240.54,-323.4 -605.78,-646.26 -983.03,-807.27 -189.94,-81.06 -224.16,-107.19 -437.18,-159.58 -767.01,-188.64 -1545.76,-25.73 -2148.1,425.45 -175.45,131.42 -346.93,291.76 -479.09,468.72 -255.6,342.27 -285.35,448.95 -408.83,784.7 -38.02,103.4 -208.07,107.34 -457.14,262.49l-404.73 314.89 -218.74 255.17c-109.66,147.85 -188.57,282.69 -263.21,456.42 -89.67,208.67 -180.37,495.7 -180.37,784.98zm2436.02 -793.38l898.28 1360.32 0 -1373.22c0,-89.18 19.34,-155.8 57.48,-200.4 38.14,-44.6 89.72,-67.16 154.73,-67.16 66.63,0 119.82,22.03 158.49,66.62 38.68,44.6 58.03,111.76 58.03,200.94l0 1814.3c0,202.54 -83.81,303.55 -251.44,303.55 -41.91,0 -79.5,-5.91 -113.35,-18.27 -33.31,-11.82 -65.01,-31.17 -94.02,-56.95 -29.55,-26.32 -56.42,-56.94 -81.66,-92.4 -25.25,-34.92 -50.51,-70.91 -75.75,-107.45l-876.26 -1343.13 0 1350.65c0,88.11 -20.42,154.74 -61.25,199.87 -41.38,45.13 -94.02,67.69 -157.96,67.69 -66.07,0 -119.26,-22.56 -159.02,-68.23 -40.29,-45.67 -60.17,-112.29 -60.17,-199.32l0 -1779.38c0,-75.75 8.6,-134.85 25.25,-177.83 19.87,-47.28 53.19,-85.96 99.39,-116.04 46.2,-29.55 96.17,-44.6 149.36,-44.6 42.45,0 78.44,6.99 107.99,20.42 30.08,13.97 56.41,32.24 78.97,55.34 22.56,23.11 45.67,52.66 69.31,89.72 23.64,36.54 48.35,74.68 73.6,114.98zm2734.62 1166.91l-428.19 0 0 653.29c0,93.49 -22.03,163.87 -66.09,212.22 -44.05,48.35 -99.92,72.53 -166.55,72.53 -70.37,0 -127.32,-23.64 -170.3,-71.46 -42.98,-47.82 -64.47,-118.2 -64.47,-210.06l0 -1778.85c0,-102.61 23.64,-176.22 70.91,-220.27 47.28,-44.05 121.95,-66.09 225.11,-66.09l599.58 0c177.29,0 313.75,13.43 409.38,40.83 94.55,26.33 176.22,69.84 244.98,130.56 68.78,61.25 120.89,135.38 156.34,223.49 36.01,88.11 53.73,187.51 53.73,297.64 0,235.32 -72.53,413.15 -217.05,534.57 -145.06,120.88 -360.5,181.6 -647.39,181.6zm-113.36 -1057.32l-314.83 0 0 705.95 314.83 0c110.13,0 202.54,-11.82 276.68,-34.92 73.6,-23.11 130.01,-60.71 169.24,-113.36 38.68,-52.11 58.03,-121.42 58.03,-206.31 0,-102.08 -30.09,-184.81 -89.72,-248.75 -67.16,-68.23 -205.23,-102.61 -414.22,-102.61z"/>
 </g>
</svg>
