<svg xmlns="http://www.w3.org/2000/svg" viewBox="0 0 121.24 121.24"><defs><style>.cls-1{fill:#48bc59;}.cls-2{fill:#fff;}</style></defs><title>renew</title><g id="Layer_2" data-name="Layer 2"><g id="Layer_1-2" data-name="Layer 1"><circle class="cls-1" cx="60.62" cy="60.62" r="60.62"/><polygon class="cls-2" points="30.23 57.25 30.34 57.25 30.23 57.36 30.23 57.25"/><path class="cls-2" d="M101.46,71.41a1.2,1.2,0,0,1,.84,2L88.17,87.57l-.13.14L75.69,75.34l-1.9-1.9a1.2,1.2,0,0,1,.85-2h7.22V45.89H57.31A6.18,6.18,0,0,1,53,44.09l-8.42-8.43a1.25,1.25,0,0,1,.89-2.13H88.25a6,6,0,0,1,6,6V71.41Z"/><path class="cls-2" d="M19.78,49.82a1.2,1.2,0,0,1-.85-2L33.07,33.66l.13-.13L45.55,45.89l1.9,1.91a1.2,1.2,0,0,1-.85,2H39.37V75.34H63.93a6.11,6.11,0,0,1,4.34,1.81l8.42,8.43a1.25,1.25,0,0,1-.88,2.13H33a6,6,0,0,1-6-6V49.83Z"/></g></g></svg>