<svg xmlns="http://www.w3.org/2000/svg" viewBox="0 0 289.61 289.61"><defs><style>.cls-1{fill:#48bc59;}.cls-2{fill:#fff;}</style></defs><title>upgradeicon</title><g id="Layer_2" data-name="Layer 2"><g id="Layer_1-2" data-name="Layer 1"><rect class="cls-1" width="289.61" height="289.61" rx="16.03"/><path class="cls-2" d="M83.05,144.81c0-.42.4-.6.64-.84q30.25-30.14,60.5-60.29c.63-.62.92-.53,1.48,0q30.06,30.11,60.16,60.19c.24.24.72.46.61.81s-.69.23-1.05.23q-16.48,0-33,0c-.92,0-1.18.17-1.17,1.15q0,25.14,0,50.3c0,1.52,0,1.56-1.6,1.56h-50c-1.41,0-1.41,0-1.41-1.44q0-25.22,0-50.42c0-.9-.16-1.18-1.14-1.17q-16.42.06-32.86,0A2.28,2.28,0,0,1,83.05,144.81Z"/><path class="cls-2" d="M233.71,210.39a110.35,110.35,0,0,1-71.3,43.45c-2.39.38-4.77.67-7.1.88l-.14.44h-9.23l-.13-.23H143.3l-.11.23H135l-.17-.36a93.19,93.19,0,0,1-16.67-2.7,111.29,111.29,0,0,1-56.68-34.85,110.9,110.9,0,0,1-26.63-59.43c-.06-.53-.09-1.06-.11-1.6a8.44,8.44,0,0,0-.15-1.43l-.34-.87V135.11l.29-.81a8.67,8.67,0,0,0,.19-1.68c0-.54.06-1.08.13-1.62a107.73,107.73,0,0,1,9-31.72A109.42,109.42,0,0,1,82.42,53a100.25,100.25,0,0,1,28.94-13.86l1.94-.56a84.69,84.69,0,0,1,13.08-3.11l1.55-.19c1.35-.17,2.61-.32,3.78-.57a5.59,5.59,0,0,1,7.06,5.74c0,3,0,5.94,0,8.91V55c0,2.18,0,4.44,0,6.63A6,6,0,0,1,133.54,68c-.29,0-.58.1-.86.15-.57.11-1.14.21-1.72.29-5.84.76-11.29,2.84-17.82,5.47C105.89,76.84,99,81.51,91.47,88.6a74.75,74.75,0,0,0-22,38.23,76.57,76.57,0,0,0,2.68,44.75c3.93,10.5,10.24,19.91,19.29,28.76A73.35,73.35,0,0,0,130,220.56c23.25,4.3,44.52-1,63.22-15.63a74.87,74.87,0,0,0,13.1-13.37,5.83,5.83,0,0,1,8.13-1.61c1.62,1,3.26,2.07,4.89,3.1,4.24,2.67,8.62,5.43,12.87,8.35a5.71,5.71,0,0,1,1.5,9Z"/><path class="cls-2" d="M246.09,189a5.64,5.64,0,0,1-3.4,3.32,5.19,5.19,0,0,1-1.73.29,6.1,6.1,0,0,1-3-.85c-3.91-2.2-7.72-4.59-11.4-6.9l-2.2-1.38c-1.07-.67-2.14-1.36-3.21-2.05l-1.81-1.16a6.1,6.1,0,0,1-2.41-7.65,77.41,77.41,0,0,0,5.14-33.79,75.55,75.55,0,0,0-15.8-41.12A79.45,79.45,0,0,0,185.12,78.5a75.26,75.26,0,0,0-19-8.34,99.9,99.9,0,0,0-10.88-2.31l-1-.18a5.75,5.75,0,0,1-4.91-5.91c0-7.86,0-14.45,0-21.08a5.92,5.92,0,0,1,6.54-6.21A72.41,72.41,0,0,1,170.49,37a114.28,114.28,0,0,1,40.83,19.28,109.85,109.85,0,0,1,35.4,45.51,107.07,107.07,0,0,1,8.66,43.83C255.64,159,252.51,173.64,246.09,189Z"/></g></g></svg>