<?xml version="1.0" encoding="UTF-8"?>
<!DOCTYPE svg PUBLIC "-//W3C//DTD SVG 1.1//EN" "http://www.w3.org/Graphics/SVG/1.1/DTD/svg11.dtd">
<!-- Creator: CorelDRAW 2018 (64-Bit) -->
<svg xmlns="http://www.w3.org/2000/svg" xml:space="preserve" width="0.620244in" height="0.551177in" version="1.1" style="shape-rendering:geometricPrecision; text-rendering:geometricPrecision; image-rendering:optimizeQuality; fill-rule:evenodd; clip-rule:evenodd"
viewBox="0 0 52.34 46.51"
 xmlns:xlink="http://www.w3.org/1999/xlink">
 <defs>
  <style type="text/css">
   <![CDATA[
    .fil2 {fill:#F58634}
    .fil0 {fill:#008F4F}
    .fil1 {fill:#008F4F}
   ]]>
  </style>
 </defs>
 <g id="Layer_x0020_1">
  <metadata id="CorelCorpID_0Corel-Layer"/>
  <g id="_1327915711408">
   <path class="fil0" d="M51.96 7.38l-0.17 -0.04c-3.04,-0.74 -6.88,-0.62 -9.9,0.18 -0.04,0.01 -0.09,0.02 -0.13,0.04l-0.17 0.05 -0.12 -0.13c-4.19,-4.76 -10.17,-7.46 -16.51,-7.46 -12.15,0 -22,9.85 -22,22 0,2.08 0.29,4.16 0.88,6.16l0.03 0.11 -0.06 0.1c-0.02,0.04 -0.04,0.07 -0.06,0.11 -1.26,2.28 -2.38,4.77 -3.06,7.3 -0.54,2.01 -0.94,4.4 -0.49,6.46 0.31,1.43 1.02,2.65 2.28,3.44 1.23,0.76 2.71,0.92 4.13,0.78 2.95,-0.28 6.11,-1.82 8.63,-3.33 0.39,-0.24 0.78,-0.48 1.17,-0.72l0.12 -0.08 0.13 0.05c2.64,1.07 5.45,1.62 8.3,1.62 11.03,0 20.38,-8.18 21.82,-19.12l0.02 -0.12 0.09 -0.07c0.2,-0.15 0.4,-0.31 0.6,-0.47 2.79,-2.31 4.06,-5.05 4.59,-8.58 0.4,-2.65 0.32,-5.44 -0.09,-8.09l-0.03 -0.18zm-15.93 21.79c0.75,-0.19 1.5,-0.39 2.24,-0.61l0.42 -0.13 -0.06 0.43c-0.23,1.61 -0.75,2.86 -1.88,4.04l-0.5 0.53 0.02 -0.73c0.03,-1.11 -0.09,-2.12 -0.44,-3.18l-0.09 -0.29 0.29 -0.07zm-6.28 -5.72c-1.06,-0.35 -2.07,-0.47 -3.18,-0.44l-0.73 0.02 0.53 -0.5c1.18,-1.13 2.44,-1.64 4.04,-1.88l0.43 -0.06 -0.13 0.42c-0.22,0.74 -0.42,1.49 -0.61,2.24l-0.07 0.29 -0.29 -0.09zm20.29 -8.76c-0.25,2.24 -0.88,4.37 -2.28,6.18 -2.86,3.71 -8.67,5.36 -13.04,6.49l-0.15 0.04 -2.77 -2.73 0.04 -0.15c0.81,-3.34 1.93,-7.03 3.77,-9.94 1.23,-1.94 2.75,-3.44 4.88,-4.35 1.28,-0.55 2.65,-0.83 4.02,-1.01l0.24 -0.03 0.07 0.23c0.76,2.5 2.34,4.44 4.99,4.98l0.25 0.05 -0.03 0.25zm-0.12 -2.41c-1.35,-0.42 -2.49,-1.6 -2.92,-2.94l-0.12 -0.36 0.38 -0c0.88,-0.01 1.77,0.02 2.64,0.1l0.23 0.02 0.02 0.23c0.08,0.89 0.12,1.79 0.12,2.68l-0 0.38 -0.36 -0.11zm-30.88 28.36c1.92,-1.36 3.77,-2.81 5.57,-4.31 2.82,-2.36 5.54,-4.87 8.08,-7.54l0.2 -0.21 0.7 0.7 0.02 0.05c0.78,1.88 0.83,3.86 0.11,5.76 -0.37,0.97 0.42,2.02 1.42,1.49 1.66,-0.87 3.16,-2.04 4.17,-3.64 1,-1.59 1.36,-3.19 1.43,-5.05l0.01 -0.2 0.19 -0.06c1.04,-0.31 2.06,-0.7 3.04,-1.18l0.54 -0.26 -0.14 0.58c-2.18,8.93 -10.22,15.22 -19.41,15.22 -1.98,0 -3.94,-0.29 -5.83,-0.87l-0.55 -0.17 0.47 -0.33zm-5.26 0.81c-2.14,1.26 -4.88,2.6 -7.37,2.83 -0.92,0.09 -1.96,0.04 -2.77,-0.46 -0.73,-0.45 -1.11,-1.21 -1.29,-2.03 -0.37,-1.69 0.02,-3.78 0.46,-5.43 0.44,-1.64 1.08,-3.25 1.82,-4.78l0.25 -0.53 0.25 0.52c1.89,3.91 4.91,7.18 8.64,9.39l0.41 0.24 -0.41 0.24zm17.57 -22.93c-2.74,-0.16 -6.26,1.82 -7.78,4.07 -0.34,0.5 -0.62,1.05 -0.81,1.63 -0.12,0.37 -0.17,0.82 0.06,1.16 0.38,0.59 1.02,0.45 1.58,0.22 0.23,-0.1 0.45,-0.22 0.69,-0.29 1.65,-0.5 3.37,-0.21 4.94,0.42l0.05 0.02 1.26 1.27 -0.19 0.2c-2.5,2.63 -5.17,5.1 -7.96,7.43 -2.22,1.85 -4.51,3.62 -6.92,5.23l-0.14 0.09 -0.15 -0.07c-6.76,-3.4 -11.03,-10.3 -11.03,-17.88 0,-11.04 8.95,-19.99 19.99,-19.99 5.4,0 10.54,2.16 14.31,6.03l0.27 0.28 -0.35 0.17c-4.17,2.02 -5.98,5.71 -7.56,9.83l-0.07 0.19 -0.2 -0.01z"/>
   <path class="fil1" d="M7.97 16.6l1.81 0.59 0.08 -0.25c0.83,-2.53 2.28,-4.81 4.22,-6.64 1.93,-1.83 4.29,-3.15 6.86,-3.84l0.26 -0.07 -0.49 -1.84 -0.26 0.07c-2.88,0.77 -5.51,2.25 -7.68,4.3 -2.16,2.05 -3.79,4.6 -4.72,7.43l-0.08 0.25z"/>
   <path class="fil2" d="M42.1 12.99c-2.27,0 -4.11,1.84 -4.11,4.11 0,2.27 1.84,4.11 4.11,4.11 2.27,0 4.11,-1.84 4.11,-4.11 0,-2.27 -1.84,-4.11 -4.11,-4.11zm0 2.09c1.12,0 2.02,0.91 2.02,2.02 0,1.12 -0.91,2.02 -2.02,2.02 -1.12,0 -2.02,-0.91 -2.02,-2.02 0,-1.12 0.91,-2.02 2.02,-2.02z"/>
  </g>
 </g>
</svg>
