<?xml version="1.0" encoding="UTF-8"?>
<!DOCTYPE svg PUBLIC "-//W3C//DTD SVG 1.1//EN" "http://www.w3.org/Graphics/SVG/1.1/DTD/svg11.dtd">
<!-- Creator: CorelDRAW 2018 (64-Bit Evaluation Version) -->
<svg xmlns="http://www.w3.org/2000/svg" xml:space="preserve" width="1.88976in" height="1.88976in" version="1.1" style="shape-rendering:geometricPrecision; text-rendering:geometricPrecision; image-rendering:optimizeQuality; fill-rule:evenodd; clip-rule:evenodd"
viewBox="0 0 1182.3 1182.3"
 xmlns:xlink="http://www.w3.org/1999/xlink">
 <defs>
  <style type="text/css">
   <![CDATA[
    .fil2 {fill:none}
    .fil1 {fill:#F58634}
    .fil3 {fill:white}
    .fil0 {fill:url(#id1)}
   ]]>
  </style>
    <clipPath id="id0">
     <path d="M197.78 0l786.74 0c109.21,0 197.78,88.57 197.78,197.78l0 786.75c0,109.21 -88.57,197.77 -197.78,197.77l-786.74 0c-109.21,0 -197.78,-88.57 -197.78,-197.78l0 -786.74c0,-109.21 88.57,-197.78 197.78,-197.78z"/>
    </clipPath>
  <linearGradient id="id1" gradientUnits="userSpaceOnUse" x1="-0" y1="591.15" x2="1367.86" y2="1163.39">
   <stop offset="0" style="stop-opacity:1; stop-color:#008F4F"/>
   <stop offset="1" style="stop-opacity:1; stop-color:#0098DA"/>
  </linearGradient>
 </defs>
 <g id="Layer_x0020_1">
  <metadata id="CorelCorpID_0Corel-Layer"/>
  <g id="_2086236791872">
   <path class="fil0" d="M197.78 0l786.74 0c109.21,0 197.78,88.57 197.78,197.78l0 786.75c0,109.21 -88.57,197.77 -197.78,197.77l-786.74 0c-109.21,0 -197.78,-88.57 -197.78,-197.78l0 -786.74c0,-109.21 88.57,-197.78 197.78,-197.78z"/>
   <g style="clip-path:url(#id0)">
    <g>
     <polygon id="1" class="fil1" points="1181.77,-0.52 0.61,1182.91 -0.52,0.61 "/>
    </g>
   </g>
   <path class="fil2" d="M197.78 0l786.74 0c109.21,0 197.78,88.57 197.78,197.78l0 786.75c0,109.21 -88.57,197.77 -197.78,197.77l-786.74 0c-109.21,0 -197.78,-88.57 -197.78,-197.78l0 -786.74c0,-109.21 88.57,-197.78 197.78,-197.78z"/>
   <path class="fil3" d="M165.75 421.86l-18.55 63.67 -95.8 0 111.12 -341.33 124.19 0 118.18 341.33 -102.41 0 -19.86 -63.67 -116.87 0zm319.18 63.67l-114.26 -341.33 103.64 0 43.11 153.2c15.76,55.95 22.29,85.67 27.08,109.88l0.87 0c8.15,-38.8 18.27,-77.27 30.02,-114.92l40.06 -147.99 102.18 0.02 -116.26 341.13 -116.44 0zm-224.42 -142.69c-19.16,-60.97 -30.22,-100.24 -37.62,-128.5l-1.39 0c-6.36,28.26 -19.34,77.18 -34.84,128.79l73.85 -0.29z"/>
   <path class="fil3" d="M608.6 792.26l-94.09 0 0 -87.1 280.32 0 0 87.1 -93.16 0 0 290.91 -93.07 0 0 -290.91zm297.42 177.19c6.01,25.01 20.66,43.71 57.76,43.71 32.94,0 43.19,-13.04 43.19,-32.06 0,-19.02 -9.15,-32.06 -62.58,-44.14 -105.35,-24.26 -120.85,-71.93 -120.85,-121.73 0,-74.81 53.1,-118.41 131.01,-118.41 94.77,0 132.87,58.14 136.52,114.04l-89.68 -0c-3.22,-16.78 -11.26,-36.12 -46.66,-36.12 -25.41,0 -37.01,10.69 -37.01,28.53 0,17.85 11.94,25.65 56.15,36.34 107.72,25.54 128.64,70.43 128.64,127.28 0,72.14 -45.73,124.61 -142.61,124.61 -95.61,0 -138.12,-53.44 -146.68,-122.05l92.82 -0z"/>
  </g>
 </g>
</svg>
