<?xml version="1.0" encoding="UTF-8"?>
<!DOCTYPE svg PUBLIC "-//W3C//DTD SVG 1.1//EN" "http://www.w3.org/Graphics/SVG/1.1/DTD/svg11.dtd">
<!-- Creator: CorelDRAW 2018 (64-Bit Evaluation Version) -->
<svg xmlns="http://www.w3.org/2000/svg" xml:space="preserve" width="1.88965in" height="1.88976in" version="1.1" style="shape-rendering:geometricPrecision; text-rendering:geometricPrecision; image-rendering:optimizeQuality; fill-rule:evenodd; clip-rule:evenodd"
viewBox="0 0 513.98 514.01"
 xmlns:xlink="http://www.w3.org/1999/xlink">
 <defs>
  <style type="text/css">
   <![CDATA[
    .fil2 {fill:#25294F}
    .fil5 {fill:#3EB555}
    .fil3 {fill:#40B1E5}
    .fil0 {fill:#CEA673}
    .fil4 {fill:#D61A60}
    .fil1 {fill:#FDFDFD}
   ]]>
  </style>
 </defs>
 <g id="Layer_x0020_1">
  <metadata id="CorelCorpID_0Corel-Layer"/>
  <g id="_2085118166000">
   <path class="fil0" d="M96.67 272.54c-8.28,-94.14 61.46,-168.13 145.15,-175.94 24.68,-2.3 49.68,1.3 70.81,9.11 55.92,20.67 98.97,71.86 104.95,136.07 8.74,93.87 -61.83,168 -145.17,175.74 -93.22,8.65 -168.45,-61.97 -175.74,-144.98zm-84.22 -39.82c-1.11,11.9 -0.95,36.55 -0.06,48.66 13.66,5.55 39.75,4.62 44.58,19.18 2.59,7.81 4.23,16.92 6.91,25.04 16.16,48.99 32.63,37.22 14.22,67.87 -2.26,3.77 -11.44,16.52 -9.99,20.61 0.84,2.37 13.43,14.24 16.12,16.94 19.6,19.6 12.97,19.28 37.17,4.72 28.9,-17.39 18.02,-3.77 65.95,13.79 8.85,3.24 16.79,4.71 25.53,7.42 15.49,4.8 14.06,30.96 19.9,44.84 12.05,1.4 30.15,0.58 42.9,0.56 8.33,-0.01 7.79,-7.11 11.19,-20.68 7.33,-29.28 7.16,-21.02 35.51,-30.5 49.23,-16.47 41.42,-32.34 67.98,-17.04 25.97,14.96 18.77,17.98 38.67,-2.05 16.45,-16.56 20.84,-15.98 14.1,-27.02 -2.26,-3.7 -4.17,-6.94 -6.19,-10.31 -20.84,-34.82 -2.46,-12.42 19.9,-92.64 4.61,-16.55 29.37,-14.31 44.9,-20.75 1.35,-12.14 1.01,-36.02 0.15,-48.64 -14.02,-5.96 -40.06,-4.24 -44.83,-19.92 -5.87,-19.29 -8.8,-31.64 -17.42,-48.56 -13.55,-26.58 -19.4,-17.84 3.07,-54.5 6.95,-11.34 4.59,-9.24 -13.69,-27.63 -18.74,-18.86 -12.69,-17.75 -38.08,-2.49 -26.83,16.13 -20.21,-0.76 -67.81,-16.35 -28.4,-9.3 -29.17,-2.08 -36.1,-29.91 -6.71,-26.95 2.04,-21.53 -48.47,-21.53 -8.39,0 -6.4,1.59 -11.16,20.7 -8.93,35.93 -9.5,16.37 -58.98,40.01 -26.16,12.5 -23.18,20.25 -44.51,7.48 -25.75,-15.41 -19.37,-17.2 -38.66,2.1 -21.46,21.47 -21.46,14.62 -7.9,37.24 20.77,34.66 2.33,12.43 -19.95,92.63 -4.63,16.67 -29.96,14.31 -44.96,20.72z"/>
   <path class="fil1" d="M181.23 244.06c1.18,-10.09 0.37,-60.22 0.24,-76.65 -0.08,-10 -0.4,-16.04 9.68,-11.43 2.83,10.04 0.98,70.95 0.98,86.68 1.8,3.15 7.51,3.44 10.5,5.04 26.76,14.36 23.67,56.76 -10.37,63.09 -1.55,35.25 5.71,53.05 -9.79,47.85 -2.48,-9.01 -0.57,-35.59 -1.08,-47.44 -10.59,-3.71 -13.4,-4.69 -19.69,-11.25 -4.91,-5.11 -8.64,-12.86 -8.64,-22.24 0.02,-19.06 11.52,-28.3 28.17,-33.64zm140.84 -6.6c0.37,-15.67 0.07,-31.67 0.07,-47.38 0,-25.02 -3.58,-39.01 9.66,-34.55 3.14,11.38 0.62,64.72 1.05,81.5 16.8,5.99 28.86,14.93 28.34,34.48 -0.69,26.12 -23.68,30.26 -28.26,32.98 -0.73,13.27 1.62,44.23 -1.14,54.12 -1.28,0.43 -3.35,1.44 -5.25,1 -4.13,-0.95 -2.03,-0.54 -3.42,-2.94 -2.31,-3.77 -0.98,-43.23 -0.98,-51.15 -1.78,-2.94 -7.61,-3.51 -10.5,-5.04 -10.63,-5.62 -17.58,-15.29 -17.93,-28.95 -0.46,-18.57 12.67,-31.26 28.36,-34.07zm-70.37 -34.26c0.43,-9.98 0.12,-20.59 0.11,-30.64 -0.01,-10.79 -2.56,-21.62 9.67,-16.82 2.49,9 0.57,35.59 1.1,47.46 36.66,9.2 35.12,50.42 10.26,63.36 -2.83,1.48 -8.82,1.92 -10.38,4.95 0,15.91 1.87,76.64 -0.99,86.9 -4.62,1.82 -4.04,1.82 -8.68,0.01 -2.89,-10.46 -0.98,-72.11 -0.98,-88.29 -10.99,-3.85 -13.08,-3.85 -20.03,-11.42 -15.25,-16.6 -10.68,-47.85 19.92,-55.52zm155.6 64.19c2.99,-37.14 -12.57,-86 -38.22,-110.9 -3.57,-3.47 -5.99,-6.29 -9.84,-9.77 -25.63,-23.14 -54.56,-36.76 -91.05,-39.66 -109.83,-8.73 -190.77,102.16 -151.46,203.91 5.82,15.07 17.15,34.6 28.66,46.51 28.01,28.99 57.31,46.48 101.16,49.75 62.78,4.69 117.5,-30.5 144.13,-80.49 9.02,-16.94 14.85,-37.25 16.63,-59.35z"/>
   <path class="fil2" d="M12.45 232.72c15,-6.41 40.33,-4.05 44.96,-20.72 22.28,-80.2 40.72,-57.97 19.95,-92.63 -13.56,-22.63 -13.56,-15.78 7.9,-37.24 19.29,-19.3 12.91,-17.51 38.66,-2.1 21.34,12.77 18.35,5.02 44.51,-7.48 49.48,-23.64 50.05,-4.08 58.98,-40.01 4.75,-19.11 2.77,-20.7 11.16,-20.7 50.51,0 41.75,-5.43 48.47,21.53 6.93,27.83 7.7,20.61 36.1,29.91 47.59,15.59 40.98,32.47 67.81,16.35 25.39,-15.26 19.34,-16.37 38.08,2.49 18.28,18.39 20.64,16.3 13.69,27.63 -22.47,36.67 -16.62,27.92 -3.07,54.5 8.62,16.92 11.55,29.27 17.42,48.56 4.77,15.68 30.81,13.97 44.83,19.92 0.87,12.62 1.2,36.51 -0.15,48.64 -15.54,6.44 -40.29,4.2 -44.9,20.75 -22.36,80.22 -40.74,57.81 -19.9,92.64 2.01,3.37 3.93,6.61 6.19,10.31 6.74,11.04 2.35,10.46 -14.1,27.02 -19.9,20.03 -12.7,17.01 -38.67,2.05 -26.56,-15.3 -18.75,0.57 -67.98,17.04 -28.34,9.48 -28.18,1.21 -35.51,30.5 -3.4,13.56 -2.86,20.66 -11.19,20.68 -12.75,0.02 -30.85,0.84 -42.9,-0.56 -5.84,-13.87 -4.41,-40.03 -19.9,-44.84 -8.74,-2.71 -16.68,-4.17 -25.53,-7.42 -47.93,-17.55 -37.05,-31.17 -65.95,-13.79 -24.21,14.56 -17.57,14.87 -37.17,-4.72 -2.69,-2.69 -15.28,-14.57 -16.12,-16.94 -1.45,-4.08 7.73,-16.84 9.99,-20.61 18.41,-30.66 1.95,-18.88 -14.22,-67.87 -2.68,-8.12 -4.31,-17.23 -6.91,-25.04 -4.83,-14.56 -30.92,-13.64 -44.58,-19.18 -0.89,-12.1 -1.05,-36.75 0.06,-48.66zm200.35 -186.94c-21.63,5.04 -37.06,10.64 -56.02,20.26 -22.13,11.22 -9.26,15.29 -40.93,-3.71 -20.03,-12.02 -20.82,-5.47 -45.55,19.27 -5.81,5.81 -16.37,13.04 -13.25,23.99 1.33,4.67 10.74,19.23 13.83,24.38 6.31,10.51 5.99,8.74 -4.01,25.5l-12.17 27c-3.5,10.04 -6.42,19.73 -8.88,30.29 -9.96,2.32 -19.49,4.96 -29.7,7.41 -20.36,4.89 -15.65,19.91 -15.65,52.37 0,14.15 4.43,18.76 15.65,21.45 10.21,2.45 19.73,5.09 29.7,7.41 5.4,23.17 13.63,49 27.26,68.63 4.96,7.14 0.28,9.99 -8.77,25.11 -2.15,3.59 -5.72,8.64 -7.01,12.62 -3.65,11.28 6.14,17.94 11.96,23.77 24.06,24.06 26.43,32.42 45.29,21.06 37.54,-22.61 11.64,-14.99 68.79,7.11 12.11,4.68 18.14,4.97 25.54,7.44 6.49,2.16 5.72,8.45 9.48,23.5 6.9,27.59 7.79,23.09 56.28,23.09 19.54,0 19.3,-14.32 25.3,-39.64 1.63,-6.88 1.48,-6.04 12.84,-8.81 12.07,-2.94 36.11,-12.01 46.58,-18.35 19.22,-11.64 12,-11.32 39.03,4.9 2.77,1.66 5.3,3.59 8.63,4.8 12.38,4.49 19.89,-7.04 30.74,-17.88 9.97,-9.97 22.53,-18.92 19.44,-30.17 -2.11,-7.66 -18.66,-29.56 -18.66,-33.99l15.16 -29.16c9.65,-22.39 10.59,-32.9 13.74,-40.89 1.55,-3.93 1.93,-3.51 6.7,-4.64 44.95,-10.64 39.64,-5.28 39.64,-58.28 0,-13.29 -4.59,-19.28 -15.52,-21.58 -10.34,-2.18 -19.8,-4.94 -29.83,-7.28 -4.84,-20.77 -11.18,-38.58 -20.6,-56.71 -1.79,-3.44 -8.78,-13.71 -8.97,-16.63 -0.27,-4.24 15.93,-26.24 18.1,-33.05 3.76,-11.79 -8.39,-20.17 -18.68,-30.46 -10.68,-10.68 -18.63,-22.5 -30.47,-18.66 -6.78,2.2 -28.85,18.36 -33.04,18.09l-34.18 -17.18c-11.32,-5 -25.99,-9.33 -39.14,-12.4 -1.83,-7.87 -7.36,-35.77 -12.67,-40.94 -7.05,-6.86 -35.99,-4.42 -49.18,-4.42 -13.74,0 -17.09,6.12 -19.59,16.49 -2.33,9.62 -4.96,19.24 -7.21,28.87z"/>
   <path class="fil2" d="M407.29 267.39c-1.78,22.1 -7.61,42.41 -16.63,59.35 -26.63,49.99 -81.35,85.18 -144.13,80.49 -43.84,-3.27 -73.15,-20.76 -101.16,-49.75 -11.51,-11.91 -22.84,-31.45 -28.66,-46.51 -39.31,-101.75 41.63,-212.64 151.46,-203.91 36.49,2.9 65.42,16.52 91.05,39.66 3.86,3.48 6.27,6.31 9.84,9.77 25.65,24.89 41.21,73.75 38.22,110.9zm-310.61 5.15c7.3,83.01 82.52,153.63 175.74,144.98 83.34,-7.74 153.9,-81.87 145.17,-175.74 -5.97,-64.21 -49.03,-115.4 -104.95,-136.07 -21.13,-7.81 -46.14,-11.41 -70.81,-9.11 -83.69,7.8 -153.43,81.79 -145.15,175.94z"/>
   <path class="fil2" d="M251.46 214.16c29.85,-7.73 40.31,37.77 11.6,44.79 -30.82,7.53 -40.4,-37.33 -11.6,-44.79zm0.23 -10.96c-30.6,7.66 -35.16,38.91 -19.92,55.52 6.95,7.57 9.04,7.57 20.03,11.42 0,16.18 -1.91,77.83 0.98,88.29 4.63,1.81 4.06,1.8 8.68,-0.01 2.86,-10.26 0.99,-70.98 0.99,-86.9 1.55,-3.03 7.54,-3.48 10.38,-4.95 24.86,-12.94 26.4,-54.16 -10.26,-63.36 -0.52,-11.87 1.39,-38.45 -1.1,-47.46 -12.22,-4.8 -9.67,6.03 -9.67,16.82 0.01,10.05 0.32,20.66 -0.11,30.64z"/>
   <path class="fil2" d="M321.79 248.31c29.35,-7.27 40.63,36.14 12.28,44.53 -14.45,4.27 -26.51,-5.8 -29.11,-16.61 -3.32,-13.82 6.23,-25.29 16.83,-27.92zm0.27 -10.85c-15.69,2.82 -28.83,15.5 -28.36,34.07 0.34,13.67 7.3,23.34 17.93,28.95 2.9,1.53 8.73,2.09 10.5,5.04 0,7.92 -1.34,47.38 0.98,51.15 1.39,2.4 -0.71,1.99 3.42,2.94 1.9,0.44 3.97,-0.56 5.25,-1 2.76,-9.89 0.41,-40.85 1.14,-54.12 4.57,-2.72 27.57,-6.86 28.26,-32.98 0.51,-19.56 -11.54,-28.5 -28.34,-34.48 -0.43,-16.78 2.09,-70.12 -1.05,-81.5 -13.24,-4.46 -9.66,9.53 -9.66,34.55 0,15.71 0.3,31.71 -0.07,47.38z"/>
   <path class="fil2" d="M179.41 256.07c27.67,-11.05 44.27,32.8 14.9,43.35 -18.95,6.81 -37.97,-13.16 -27.76,-32.9 3.41,-6.58 5.15,-7.38 12.85,-10.46zm1.81 -12.02c-16.66,5.34 -28.16,14.58 -28.17,33.64 -0.01,9.39 3.73,17.14 8.64,22.24 6.29,6.55 9.1,7.53 19.69,11.25 0.52,11.85 -1.4,38.44 1.08,47.44 15.5,5.21 8.23,-12.6 9.79,-47.85 34.04,-6.33 37.13,-48.73 10.37,-63.09 -2.99,-1.6 -8.7,-1.89 -10.5,-5.04 0,-15.73 1.84,-76.64 -0.98,-86.68 -10.08,-4.61 -9.75,1.43 -9.68,11.43 0.12,16.43 0.94,66.56 -0.24,76.65z"/>
   <path class="fil3" d="M251.46 214.16c-28.8,7.46 -19.23,52.31 11.6,44.79 28.72,-7.01 18.25,-52.52 -11.6,-44.79z"/>
   <path class="fil4" d="M321.79 248.31c-10.6,2.63 -20.16,14.1 -16.83,27.92 2.6,10.81 14.66,20.89 29.11,16.61 28.36,-8.39 17.07,-51.8 -12.28,-44.53z"/>
   <path class="fil5" d="M179.41 256.07c-7.7,3.07 -9.45,3.87 -12.85,10.46 -10.22,19.74 8.81,39.71 27.76,32.9 29.37,-10.55 12.77,-54.4 -14.9,-43.35z"/>
  </g>
 </g>
</svg>
