<?xml version="1.0" encoding="UTF-8"?>
<!DOCTYPE svg PUBLIC "-//W3C//DTD SVG 1.1//EN" "http://www.w3.org/Graphics/SVG/1.1/DTD/svg11.dtd">
<!-- Creator: CorelDRAW 2018 (64-Bit Evaluation Version) -->
<svg xmlns="http://www.w3.org/2000/svg" xml:space="preserve" width="1.67721in" height="1.67591in" version="1.1" style="shape-rendering:geometricPrecision; text-rendering:geometricPrecision; image-rendering:optimizeQuality; fill-rule:evenodd; clip-rule:evenodd"
viewBox="0 0 1570.03 1568.81"
 xmlns:xlink="http://www.w3.org/1999/xlink">
 <defs>
  <style type="text/css">
   <![CDATA[
    .fil1 {fill:#FDFEFD}
    .fil0 {fill:url(#id0)}
   ]]>
  </style>
  <linearGradient id="id0" gradientUnits="userSpaceOnUse" x1="0.21" y1="783.9" x2="1816.24" y2="1544.22">
   <stop offset="0" style="stop-opacity:1; stop-color:#008F4F"/>
   <stop offset="1" style="stop-opacity:1; stop-color:#0077BD"/>
  </linearGradient>
 </defs>
 <g id="Layer_x0020_1">
  <metadata id="CorelCorpID_0Corel-Layer"/>
  <path class="fil0" d="M164.17 4.47c-47.32,6.87 -93.3,36.88 -122.55,73.25 -10.78,13.39 -24.53,43.77 -31.98,66.46 -9.13,27.79 -7.41,62.57 -7.43,92.56l0.2 975.05c0.06,121.28 -23.77,238.52 77.12,315.84 40.25,30.84 88.04,39.1 157.99,39.07l975.04 -0.25c117.79,-0.03 242.66,23.35 315.1,-76.42 34.24,-47.16 39.56,-88.44 39.55,-158.29l0.28 -975.04c0.05,-124.17 19.66,-208.81 -50.89,-291.73l-39.91 -33.88c-44.73,-28.52 -95.78,-29.49 -144.17,-29.49l-975.04 -0.2c-57.25,0.04 -139.76,-4.7 -193.31,3.07z"/>
  <path class="fil1" d="M894.57 1115.45c-11.24,10.45 -289.67,44.45 -380.78,-75.13 -45.94,-60.3 -74.93,-151.35 -45,-245.78 38.39,-121.09 194.04,-221.06 181.07,-99.9 -8.79,82.15 -65,39.94 -91.16,145.83 -44.96,181.91 217.04,235.71 240.74,171 18.55,-50.66 11.24,-241.58 9.82,-303.9 -0.93,-41.35 -13.7,-110.81 10.77,-139.3 33.88,-2.72 61.29,32.81 72.35,58.19 15.9,36.5 8.79,80.49 9.38,120.75l3.22 219.21c0.06,27.6 3.9,135.74 -10.42,149.04zm-139.79 -118.6c-37.79,2.76 -55.95,-23.06 -69.61,-44.67 -18.18,-28.75 -17.17,-53.68 -17.06,-90.99 0.22,-73.07 0.37,-146.15 0.55,-219.23 0.11,-47.44 -12.16,-177.24 22.06,-194.98 14.18,-7.36 271.97,-31.47 356.38,68.77 152.81,181.45 3.94,426.86 -117.47,407.21 -10.09,-15.97 -14.46,-43.85 -11.7,-65.09 4.85,-37.36 48.02,-49.86 72.4,-85.12 62.77,-90.84 11.1,-204.04 -98.07,-233.57 -157.18,-42.53 -129,47.17 -127.06,168.67 0.99,62.2 7.89,243.03 -10.43,288.99zm-569.41 -166.35c7.28,85.55 30.86,167.53 67.29,234.25 48.71,89.22 132.26,181.88 218.96,232.34 109.39,63.67 224.72,99.55 361.72,86.57 179.12,-16.96 287.1,-82.65 400.55,-200.76 90.13,-93.85 166.81,-266.68 150.55,-448.55 -30.05,-336.18 -319.77,-573.4 -644.19,-550.26 -120.28,8.59 -214.95,48.45 -305.76,111.89 -59.45,41.54 -126.7,112.27 -162.73,174.6 -19.32,33.42 -34.84,61.75 -49.29,99.96 -29.87,79.01 -44.74,170.36 -37.11,259.96z"/>
 </g>
</svg>
