<?xml version="1.0" encoding="UTF-8"?>
<!DOCTYPE svg PUBLIC "-//W3C//DTD SVG 1.1//EN" "http://www.w3.org/Graphics/SVG/1.1/DTD/svg11.dtd">
<!-- Creator: CorelDRAW 2018 (64-Bit Evaluation Version) -->
<svg xmlns="http://www.w3.org/2000/svg" xml:space="preserve" width="1.86437in" height="1.67808in" version="1.1" style="shape-rendering:geometricPrecision; text-rendering:geometricPrecision; image-rendering:optimizeQuality; fill-rule:evenodd; clip-rule:evenodd"
viewBox="0 0 1141.15 1027.12"
 xmlns:xlink="http://www.w3.org/1999/xlink">
 <defs>
  <style type="text/css">
   <![CDATA[
    .fil0 {fill:black}
    .fil11 {fill:#004848}
    .fil1 {fill:#00C6C8}
    .fil10 {fill:#0B97A3}
    .fil9 {fill:#755820}
    .fil3 {fill:#8B8996}
    .fil5 {fill:#B9BBC1}
    .fil7 {fill:#E50D28}
    .fil2 {fill:#E9E9EA}
    .fil6 {fill:#FC502A}
    .fil8 {fill:#FCA629}
    .fil4 {fill:#FDC74F}
   ]]>
  </style>
 </defs>
 <g id="Layer_x0020_1">
  <metadata id="CorelCorpID_0Corel-Layer"/>
  <g id="_2085059862000">
   <path class="fil0" d="M33.43 952.6c0,-30.29 14.98,-27.16 42.35,-27.09l987.36 0.46c48.64,-0.06 44.18,-0.77 44.18,64.75l-1073.89 0.62 0 -38.73zm1107.71 -681.66l0 46.59c-0.5,38.48 -5.75,75.05 -49.08,100.11 -10.45,6.04 -17.94,8.12 -31.15,11.2l0 430.16c-0.02,21.61 -3.59,29.99 4.83,33.06 9.39,3.43 27.79,-1.23 38.49,1.63 33.7,9 36.71,40.45 36.92,67.15l0 11.83 0 25.6c-0.38,4.47 -1.18,8.54 -2.74,11.78 -4.06,8.41 -11.78,13.39 -22.55,15.34 -12.85,2.33 -1077.72,2.33 -1090.57,0 -11.51,-2.09 -19.52,-7.68 -23.25,-16.87 -1.15,-2.83 -1.74,-6.56 -2.04,-10.73l0 -25.12 0 -9.39c0.14,-27.22 2.7,-62.37 38.71,-70.02 29.44,-6.26 42.03,11.92 41.72,-16.23l-0.2 -448.19c-14.45,-3.37 -22.47,-5.69 -33.93,-12.87 -30.25,-18.96 -45.53,-48.57 -46.31,-87.75l0 -54.93c1.22,-7.9 4.26,-15.68 11.14,-29.43l61.04 -121.72c23.25,-47.33 -35.98,-121.6 61.54,-121.23 35.03,0.13 71.52,-7.16 73.55,17.84 -1.73,9.32 -4.61,13.17 -12.67,15.68 -25.26,1.41 -64.36,-2.2 -85.73,1.71l-0.49 67.09 923.17 0.95 1.08 -60.97c-1.88,-9.67 0.17,-3.41 -3.27,-6.3 -9.22,-4.96 -566.44,-2 -668.3,-2 -25.96,0 -73.92,2.69 -97.1,-1.27 -7.95,-2.58 -10.29,-5.08 -12.04,-14.88 1.73,-24.69 37.71,-17.83 71.25,-17.83 110.65,0 690.38,-2.32 707.95,0.81 44,7.84 34.41,48 34.15,99.58 -0.1,18.9 3.87,20.85 10.49,34.08l58.71 117.37c4.72,9.16 6.24,12.58 6.67,18.2zm-965.03 252.08l188.83 -0.26 0.55 369.31 -189.05 0.51 -0.33 -369.56zm747.67 -101.37c22.04,-9.39 29.34,-17.39 40.73,-32.76 8.88,6.53 15.44,17.11 27.18,24.51 11.29,7.11 22.19,11.54 36.12,14.47l-0.01 464.21 -611.09 0.52c-5.67,0.05 -13.12,0.52 -18.17,-1.93 0.76,-88.45 0.05,-177.21 0.05,-265.69 0,-159.9 32.66,-135.37 -193.56,-135.4 -73.52,-0.01 -61.92,4.79 -61.92,137.63 0,57.67 2.78,220.25 -0.42,264.88l-29.04 0 -0.35 -464.22c13.31,-2.8 25.7,-7.16 36.03,-14.6 3.63,-2.61 11.05,-8.72 13.47,-11.03 5.88,-5.63 5.64,-7.85 13.82,-13.34 30.78,41.21 81.1,52.84 125.79,28.07 14.12,-7.82 21.09,-19.43 32.3,-28.15 23.61,37.84 80.05,54.17 125.76,28 14.7,-8.42 20.16,-20.15 32.37,-28.06 28.11,52.85 127.34,52.85 155.46,0 15.16,9.84 29.33,39.92 78.23,40.88 39.31,0.77 67.35,-20.71 79.89,-40.82 16.98,13.2 20.86,25.35 47.71,35.07 20.64,7.47 50.94,8.41 69.65,-2.23zm-291.07 -135.2c0.87,26.06 3.66,56.68 -8.11,78.25 -23.03,42.21 -85.87,42.73 -108.85,-1.47 -10.93,-21.03 -8.18,-51.48 -7.6,-76.9l124.55 0.12zm316.03 0.46c0.67,24.21 3.38,58.77 -7.9,77.6 -25.31,42.26 -85.26,43.24 -108.97,-0.87 -11.05,-20.55 -8.43,-52.08 -7.41,-77.34l124.28 0.61zm158 0.24c0.59,24.28 3.1,58.19 -7.98,77.01 -9.03,15.35 -26.95,31.71 -53.45,31.96 -26.07,0.25 -46.15,-15.28 -55.41,-32.21 -10.84,-19.8 -8.46,-52.75 -7.38,-77.54l124.22 0.79zm-316.04 -0.45c0.78,25.45 2.83,58.49 -8,77.93 -8.71,15.65 -27.4,31.35 -53.89,31.48 -29.11,0.14 -45.44,-15.43 -54.88,-32.82 -10.86,-20 -8.37,-51.98 -7.45,-76.92l124.22 0.32zm-316.06 -0.31c0.96,26.11 3.61,57.38 -8.26,78.32 -26.23,46.29 -88.4,38.08 -108.74,-1.53 -9.91,-19.3 -7.97,-51.88 -7.22,-76.76l124.22 -0.03zm-157.98 -0.07c1.05,25.93 3.67,57.65 -8.22,78.72 -24.32,43.08 -84.98,41.19 -108.98,-1.95 -10.27,-18.46 -7.72,-53.24 -7.08,-76.72l124.28 -0.06zm-158.06 0.07c1.11,25.49 3.54,58.95 -8.19,78.94 -23.91,40.73 -84.49,42.05 -108.86,-2.59 -10.04,-18.38 -7.72,-52.7 -7.17,-76.27l124.22 -0.07zm357.36 -150.58l107.52 1.01 8.65 116.36 -122.78 -0 6.61 -117.36zm140.91 0.2l104.95 0.4 24.72 116.57 -121.47 -1 -8.21 -115.97zm-277.84 0.06l105.36 -0.03 -8.32 116.83 -121.7 -0.17 24.65 -116.63zm601.64 116.89c-6.54,-3.38 -5.28,-4.74 -7.86,-12.42 -1.8,-5.37 -3.46,-9.9 -5.27,-14.78 -3.75,-10.16 -6.72,-19.02 -10.61,-29.51 -6.58,-17.76 -16.84,-42.56 -20.9,-60.21l98.13 -0.01c8.39,2 58.97,111.29 61.61,116.84l-115.1 0.09zm-935.3 -0.82c9.46,-19.21 19.42,-38.69 29.32,-58.33 5.14,-10.21 9.93,-19.7 14.94,-29.64 2.67,-5.29 11.16,-26.67 17.35,-28.15l98.13 0.07c-4.06,17.59 -14.32,42.38 -20.9,60.15 -3.89,10.49 -6.85,19.35 -10.61,29.51 -4.09,11.07 -6.77,25.65 -13.13,27.2l-115.1 -0.82zm750.77 -115.77l8.73 -0.62 86.65 -0.05 8.69 0.49 41.39 117.03 -120.84 -0.75 -24.62 -116.1zm-555.72 -0.63l104.9 0.89 -24.84 116.48 -121.34 -0.07 41.28 -117.3z"/>
   <path class="fil1" d="M684.65 505.83c-4.31,22.19 -18.57,17.2 -42.75,17.17 -19.32,-0.02 -38.63,-0 -57.95,-0 -36.59,0 -79.24,2 -115.07,-0.32 -4.89,22.4 -1.31,102.86 -1.31,131.26 0,44 -0.46,88.23 0.08,132.19l477.44 -1.78 0 -257.83c-29.16,0 -70.02,2.35 -97.73,-0.49l-76.19 -1.06c-10.88,0.01 -18.22,1.44 -26.1,-2.33 -9.7,-2.36 -13.68,-7.15 -14.54,-17.69l-45.88 0.88z"/>
   <path class="fil2" d="M398.55 890.66c30.07,0 509.45,2.79 525.66,-1.41l0 -65.93c-20.7,-4.79 -375.36,1.26 -449.6,-1.08 -9.41,-0.29 -7.4,0.99 -14.01,-3.3 -25.79,-3.45 -27.16,-24.92 -27.1,-51.33l-0.04 -234.03c-0.11,-28.86 6.1,-43.08 34.5,-44.02l156.1 0.01c32.46,0 56.3,-6.19 60.58,16.27l45.88 -0.88c4.82,-19.24 17.44,-15.44 38.41,-15.39 17.09,0.04 34.18,0 51.27,0 34.58,0 69.48,0.47 104.01,-0.1l-0.42 -67.83c-18.71,10.65 -49.01,9.7 -69.65,2.23 -26.85,-9.72 -30.73,-21.87 -47.71,-35.07 -12.54,20.1 -40.59,41.59 -79.89,40.82 -48.9,-0.96 -63.07,-31.04 -78.23,-40.88 -28.11,52.85 -127.35,52.85 -155.46,0 -12.2,7.91 -17.66,19.65 -32.37,28.06 -45.7,26.17 -102.15,9.84 -125.76,-28 -11.21,8.72 -18.18,20.33 -32.3,28.15 -44.69,24.77 -95,13.14 -125.79,-28.07 -8.18,5.49 -7.95,7.71 -13.82,13.34 -2.42,2.32 -9.84,8.42 -13.47,11.03 -10.32,7.44 -22.72,11.8 -36.03,14.6l0.35 464.22 29.04 0c3.2,-44.64 0.42,-207.22 0.42,-264.88 0,-132.84 -11.6,-137.64 61.92,-137.63 226.22,0.03 193.56,-24.5 193.56,135.4 0,88.48 0.7,177.25 -0.05,265.69z"/>
   <path class="fil3" d="M33.43 991.33l1073.89 -0.62c0,-65.51 4.46,-64.81 -44.18,-64.75l-987.36 -0.46c-27.36,-0.07 -42.35,-3.2 -42.35,27.09l0 38.73z"/>
   <path class="fil1" d="M302.95 694.06c0,-32.44 33.77,-32.44 33.77,0l0 15.6c0,32.45 -33.77,32.45 -33.77,0l0 -15.6zm-124.67 197.09l184 -1.98 -0 -362.22 -184 -1.98 0 366.18z"/>
   <path class="fil4" d="M194.6 34.41c-9.23,5.18 -73.38,2.88 -82.96,2.26l-1.11 65.23 816.99 -0.02 0 -64.81c-191.47,-1.86 -389.32,-0.06 -582.06,-0.06 -13.82,0 -75.37,3.72 -81.5,-3.4 -7.95,-2.58 -10.29,-5.08 -12.04,-14.88l-44.66 0c-1.73,9.32 -4.61,13.17 -12.67,15.68z"/>
   <path class="fil0" d="M460.6 818.94c151.17,3.2 304.04,-1.71 455.44,0.19 79.34,0.99 66.24,1.03 66.24,-160.73 0,-37.89 -0.04,-75.78 0,-113.67 0.05,-52.33 -7.27,-54.56 -58.07,-55.26 -34.53,0.57 -69.44,0.1 -104.01,0.1 -17.09,0 -34.18,0.04 -51.27,-0 -20.96,-0.05 -33.58,-3.85 -38.41,15.39 0.87,10.53 4.84,15.33 14.54,17.69l204.03 0.62 -0.35 260.63c-3.98,4.93 -3.63,3.25 -12.54,3.25 -63.16,0 -464.65,1.77 -468.57,-1 -1.02,-1.5 -1.52,2.27 -2.79,-7.18l0.12 -225.31c-0,-5.96 -0.16,-12 -0.15,-17.92 0.03,-14.58 1.41,-11.81 4.05,-13.04 35.83,2.31 78.48,0.32 115.07,0.32 19.32,0 38.63,-0.02 57.95,0 24.18,0.03 38.44,5.02 42.75,-17.17 -4.29,-22.45 -28.12,-16.27 -60.58,-16.27l-156.1 -0.01c-28.4,0.93 -34.61,15.15 -34.5,44.02l0.04 234.03c-0.07,26.42 1.31,47.89 27.1,51.33z"/>
   <path class="fil5" d="M923.79 421.64l0.42 67.83c50.8,0.7 58.13,2.93 58.07,55.26 -0.04,37.89 -0,75.78 -0,113.67 0,161.77 13.09,161.73 -66.24,160.73 -151.4,-1.89 -304.27,3.02 -455.44,-0.19 6.61,4.29 4.6,3 14.01,3.3 74.24,2.34 428.9,-3.71 449.6,1.08l0 65.93c-16.21,4.2 -495.59,1.41 -525.66,1.41 5.05,2.45 12.5,1.98 18.17,1.93l611.09 -0.52 0.01 -464.21c-13.93,-2.93 -24.83,-7.36 -36.12,-14.47 -11.74,-7.4 -18.3,-17.98 -27.18,-24.51 -11.39,15.37 -18.69,23.37 -40.73,32.76z"/>
   <polygon class="fil2" points="509.36,253.17 632.14,253.18 623.49,136.82 515.97,135.81 "/>
   <polygon class="fil6" points="354.39,252.7 476.08,252.87 484.4,136.04 379.04,136.07 "/>
   <polygon class="fil2" points="199.14,253.03 320.48,253.1 345.32,136.62 240.42,135.73 "/>
   <polygon class="fil6" points="665.09,251.98 786.56,252.98 761.84,136.41 656.88,136.01 "/>
   <polygon class="fil2" points="820.77,252.46 941.61,253.21 900.21,136.19 891.52,135.69 804.88,135.74 796.14,136.36 "/>
   <path class="fil6" d="M980.67 252.95l115.1 -0.09c-2.63,-5.55 -53.22,-114.84 -61.61,-116.84l-98.13 0.01c4.06,17.65 14.32,42.44 20.9,60.21 3.88,10.49 6.85,19.35 10.61,29.51 1.8,4.88 3.47,9.41 5.27,14.78 2.58,7.68 1.32,9.04 7.86,12.42z"/>
   <path class="fil6" d="M45.38 252.14l115.1 0.82c6.35,-1.54 9.03,-16.12 13.13,-27.2 3.76,-10.16 6.72,-19.02 10.61,-29.51 6.58,-17.76 16.84,-42.56 20.9,-60.15l-98.13 -0.07c-6.19,1.48 -14.68,22.85 -17.35,28.15 -5.01,9.93 -9.79,19.43 -14.94,29.64 -9.9,19.64 -19.86,39.12 -29.32,58.33z"/>
   <path class="fil2" d="M632.72 286.44l-124.55 -0.12c-0.59,25.43 -3.34,55.87 7.6,76.9 22.97,44.2 85.82,43.68 108.85,1.47 11.77,-21.58 8.98,-52.2 8.11,-78.25z"/>
   <path class="fil2" d="M316.68 286.32l-124.28 0.06c-0.64,23.48 -3.19,58.26 7.08,76.72 24.01,43.14 84.66,45.03 108.98,1.95 11.89,-21.07 9.27,-52.79 8.22,-78.72z"/>
   <path class="fil2" d="M948.75 286.9l-124.28 -0.61c-1.02,25.25 -3.63,56.79 7.41,77.34 23.71,44.1 83.66,43.13 108.97,0.87 11.28,-18.83 8.57,-53.39 7.9,-77.6z"/>
   <path class="fil7" d="M474.66 286.39l-124.22 0.03c-0.75,24.88 -2.69,57.46 7.22,76.76 20.33,39.61 82.51,47.82 108.74,1.53 11.87,-20.94 9.22,-52.21 8.26,-78.32z"/>
   <path class="fil7" d="M790.71 286.7l-124.22 -0.32c-0.92,24.93 -3.41,56.91 7.45,76.92 9.44,17.38 25.77,32.96 54.88,32.82 26.49,-0.13 45.18,-15.82 53.89,-31.48 10.82,-19.45 8.77,-52.48 8,-77.93z"/>
   <path class="fil7" d="M158.61 286.39l-124.22 0.07c-0.55,23.57 -2.87,57.89 7.17,76.27 24.37,44.64 84.95,43.33 108.86,2.59 11.73,-19.99 9.3,-53.44 8.19,-78.94z"/>
   <path class="fil7" d="M1106.76 287.14l-124.22 -0.79c-1.08,24.8 -3.46,57.74 7.38,77.54 9.27,16.93 29.34,32.46 55.41,32.21 26.5,-0.25 44.42,-16.6 53.45,-31.96 11.07,-18.82 8.56,-52.73 7.98,-77.01z"/>
   <polygon class="fil8" points="927.53,101.87 1030.44,101.79 1029.37,36.87 927.53,37.06 "/>
   <path class="fil9" d="M1029.37 36.87c-9.22,-4.96 -566.44,-2 -668.3,-2 -25.96,0 -73.92,2.69 -97.1,-1.27 6.13,7.12 67.68,3.4 81.5,3.4 192.74,0 390.6,-1.8 582.06,0.06l101.84 -0.19 1.07 64.91 -102.92 0.08 -816.99 0.02 1.11 -65.23c9.58,0.62 73.73,2.92 82.96,-2.26 -25.26,1.41 -64.36,-2.2 -85.73,1.71l-0.49 67.09 923.17 0.95 1.08 -60.97c-1.88,-9.67 0.17,-3.41 -3.27,-6.3z"/>
   <path class="fil10" d="M178.27 524.97l184 1.98 0 362.22 -184 1.98 -0 -366.18zm-1.82 367.61l189.05 -0.51 -0.55 -369.31 -188.83 0.26 0.33 369.56z"/>
   <path class="fil0" d="M302.95 694.06l0 15.6c0,32.45 33.77,32.45 33.77,0l0 -15.6c0,-32.44 -33.77,-32.44 -33.77,0z"/>
   <path class="fil11" d="M948.75 783.89l-3.66 0.46 -477.44 1.78c-0.53,-43.96 -0.08,-88.2 -0.08,-132.19 0,-28.4 -3.58,-108.85 1.31,-131.26 -2.64,1.23 -4.02,-1.54 -4.05,13.04 -0.01,5.92 0.14,11.96 0.15,17.92l-0.12 225.31c1.27,9.45 1.77,5.69 2.79,7.18 3.92,2.78 405.41,1 468.57,1 8.9,0 8.56,1.68 12.54,-3.25z"/>
   <path class="fil10" d="M945.09 784.35l3.66 -0.46 0.35 -260.63 -204.03 -0.62c7.88,3.77 15.22,2.34 26.1,2.33l76.19 1.06c27.71,2.84 68.57,0.49 97.73,0.49l0 257.83z"/>
  </g>
 </g>
</svg>
