<?xml version="1.0" encoding="UTF-8"?>
<!DOCTYPE svg PUBLIC "-//W3C//DTD SVG 1.1//EN" "http://www.w3.org/Graphics/SVG/1.1/DTD/svg11.dtd">
<!-- Creator: CorelDRAW 2018 (64-Bit Evaluation Version) -->
<svg xmlns="http://www.w3.org/2000/svg" xml:space="preserve" width="1.78967in" height="1.68064in" version="1.1" style="shape-rendering:geometricPrecision; text-rendering:geometricPrecision; image-rendering:optimizeQuality; fill-rule:evenodd; clip-rule:evenodd"
viewBox="0 0 467.76 439.27"
 xmlns:xlink="http://www.w3.org/1999/xlink">
 <defs>
  <style type="text/css">
   <![CDATA[
    .fil4 {fill:#59243F}
    .fil5 {fill:#60BF80}
    .fil2 {fill:#80334D}
    .fil6 {fill:#89E689}
    .fil1 {fill:#D92C49}
    .fil0 {fill:#F14973}
    .fil3 {fill:#FFD580}
   ]]>
  </style>
 </defs>
 <g id="Layer_x0020_1">
  <metadata id="CorelCorpID_0Corel-Layer"/>
  <g id="_2085396766880">
   <path class="fil0" d="M204.03 165.4c8.48,-2.34 14.78,2.46 16.55,9.04 1.29,4.8 0.64,45.96 0.66,54.28 0.02,9.72 -1.73,15.48 -9.76,17.65 -8.96,2.42 -15.29,-2.54 -17.05,-9.1 -1.29,-4.79 -0.64,-45.97 -0.66,-54.29 -0.02,-10.62 1.52,-15.16 10.27,-17.58zm-68.74 140.39c6.08,8.23 -0.01,19.77 15.54,23 4.27,0.85 12.32,-0.19 16.98,-0.84l122.07 -12.41 20.13 -35.89 -19.77 -32.69c-9.02,-0.72 -13.55,-4.52 -14.14,-13.67l-0 -54.89c0.58,-9.16 5.12,-12.97 14.14,-13.67l20.9 -27.69 -21.36 -27.19 -13.71 0 -137.12 0 -28.34 -0.01 -28.34 0.03 6.51 24.55c2.29,7.73 4.59,16.13 6.66,24.42l39.85 146.93z"/>
   <path class="fil1" d="M368.6 165.45c8.4,-2.37 14.71,2.5 16.49,9.01 1.28,4.7 0.64,46.01 0.65,54.26 0.02,9.69 -1.78,15.42 -9.75,17.61 -8.91,2.45 -15.23,-2.6 -17,-9.08 -1.28,-4.67 -0.63,-46.04 -0.65,-54.27 -0.02,-10.64 1.56,-15.07 10.26,-17.53zm-78.37 -0.71c17.68,0.94 13.22,22.91 13.22,41.11 0,18.18 4.46,40.14 -13.22,41.11l-0.36 68.58c8,0 17.23,-1.07 25.23,-2.09 7.38,-0.94 16.8,-1.97 24.91,-2.51 21.69,-1.46 51.76,-5.42 74.91,-7.36 25.05,-2.1 24.38,-4.05 28.16,-26.69l23.5 -141.04c5.39,-32.11 -7.16,-25.94 -53.41,-25.99l-68.56 0 -54.84 -0 0.45 54.87z"/>
   <path class="fil2" d="M176.61 384.79c18.13,-5.01 23.82,21.68 7.44,26.12 -18.08,4.9 -25.27,-21.19 -7.44,-26.12zm113.15 -0.69l9.39 -11.73 -9.39 -15.69c-13.49,0 -134.31,1.34 -141.54,-1.05 -10.74,-3.54 -12.49,-18.77 -1.92,-24.47 0.5,-0.27 1.94,-0.86 1.94,-0.86 0.21,-0.11 0.46,-0.21 0.66,-0.32l1.93 -1.19c-15.55,-3.23 -9.46,-14.77 -15.54,-23 -7.22,2.4 -13.04,8.15 -17.21,14.48 -4.75,7.22 -7.17,13.99 -6.57,26.36 0.83,16.91 14.92,32.3 29.26,35.64 -0.17,7.62 -7.01,22.87 5.84,39.86 23.99,31.71 75.88,16.77 74.64,-27.1 -0.15,-5.24 -1.5,-6.56 -1.87,-10.94l70.37 0z"/>
   <path class="fil3" d="M138.95 109.87l137.12 -0 11.71 -24.63 -11.71 -30.22 -119.77 -0.01c-8.95,-0.07 -13.18,1.29 -16.22,7.55 -2.82,5.82 -1.14,37.79 -1.14,47.31z"/>
   <path class="fil4" d="M358.67 400.56c-3.48,-18.61 23.91,-22.61 26.77,-5.19 3.04,18.53 -23.64,21.94 -26.77,5.19zm-68.91 -16.45l42.98 0c-6.01,25.8 4.52,46.53 28.7,53.57 22.97,6.69 46.18,-8.43 51.24,-32.13 5.45,-25.52 -15.9,-47.32 -36.1,-48.83 -12.66,-0.94 -69.38,-0.04 -86.82,-0.04l0 27.42z"/>
   <path class="fil5" d="M344.62 109.87l68.56 -0c0,-19.5 -0,-39 0,-58.5 0,-11.69 1.23,-17.77 -6.94,-22.31 -6.12,-3.4 -19.49,-1.41 -27.8,-1.48l-33.82 0.02 -0 82.27z"/>
   <path class="fil6" d="M276.07 55.02l0 54.85 13.71 -0 54.84 0 0 -82.27 -33.83 0c-9,-0.02 -23.06,-1.89 -28.91,2.16 -7.74,5.36 -5.85,13.09 -5.82,25.26z"/>
   <path class="fil2" d="M82.27 109.89l28.34 -0.03c-0.1,-4.54 -21.99,-81.56 -24.31,-90.86 -3.59,-14.37 -5.09,-18.96 -19.55,-18.84 -6.39,0.05 -53.53,-0.59 -57.23,0.38 -5.03,1.32 -8.61,5.87 -9.51,10.98l0 5.03c0.54,2.95 2.05,5.81 4.78,8.09 4.64,3.87 8.42,2.97 16.24,2.96 12.8,-0.02 25.6,0 38.39,0l22.85 82.29z"/>
   <path class="fil0" d="M310.8 27.6l33.83 -0 0.23 -6.4c-10.37,-5.95 -15.66,-21.13 -27.66,-21.13 -7.26,0 -12.42,4.89 -13.53,10.38 -2.08,10.33 3.88,12.3 7.13,17.16z"/>
   <path class="fil1" d="M344.86 21.2l-0.23 6.4 33.82 -0.02c3.36,-4.95 8.69,-6.28 7.26,-16.34 -0.87,-6.11 -6.28,-11.18 -13.66,-11.18 -10.69,0 -15.81,11.99 -27.19,21.13z"/>
  </g>
 </g>
</svg>
