<?xml version="1.0" encoding="UTF-8"?>
<!DOCTYPE svg PUBLIC "-//W3C//DTD SVG 1.1//EN" "http://www.w3.org/Graphics/SVG/1.1/DTD/svg11.dtd">
<!-- Creator: CorelDRAW 2018 (64-Bit Evaluation Version) -->
<svg xmlns="http://www.w3.org/2000/svg" xml:space="preserve" width="1.88976in" height="1.88976in" version="1.1" style="shape-rendering:geometricPrecision; text-rendering:geometricPrecision; image-rendering:optimizeQuality; fill-rule:evenodd; clip-rule:evenodd"
viewBox="0 0 571.72 571.72"
 xmlns:xlink="http://www.w3.org/1999/xlink">
 <defs>
  <style type="text/css">
   <![CDATA[
    .fil2 {fill:#FEFEFE}
    .fil0 {fill:#F58634}
    .fil3 {fill:black}
    .fil1 {fill:#FCBF29}
   ]]>
  </style>
 </defs>
 <g id="Layer_x0020_1">
  <metadata id="CorelCorpID_0Corel-Layer"/>
  <g id="_2024554656096">
   <path class="fil0" d="M2.84 564.97l0.16 0.22c2.86,3.76 7.33,6.53 11.52,6.53l99.38 0c7.76,0 16.79,-11.77 21.5,-16.47 25.34,-25.34 14.24,-16.67 14.24,-50.53 32.36,-7.54 47.44,7.24 51.18,-29.22 0.86,-8.34 1.79,-16.82 2.42,-24.38 13.84,0 43.55,10.38 43.55,-14.52l0 -31.27c45.07,0 33.61,4.92 60.02,-21.5 5.97,-5.97 19.78,-18.39 23.73,-24.29 29.85,6.95 25.42,8.93 63.65,8.93 24.47,0 54.06,-8.52 70.35,-16.75 13.64,-6.89 28.91,-15.06 40.48,-25.4 8.46,-7.56 20.32,-18.35 27.18,-27.54 21.6,-28.94 39.53,-67.83 39.53,-104.51 0,-44.23 -2.58,-52.01 -17.71,-89.49 -6.27,-15.53 -21.11,-34.98 -33.03,-47.8l-0.01 -0.01c-74.42,72.96 -198.98,119.92 -289.09,208.26 -84.3,82.65 -133.26,205.81 -229.05,299.71z"/>
   <path class="fil1" d="M520.97 57c-1.01,-1.09 -2,-2.13 -2.97,-3.12 -29.61,-30.36 -79.56,-53.88 -121.6,-53.88l-12.66 0c-14.96,0.08 -22.61,0.76 -42.95,5.8 -11.05,2.74 -23.14,7.32 -32.6,12.06 -11.91,5.97 -31.08,16.95 -40.48,26.51 -4.11,4.18 -7.48,6.34 -11.72,10.61 -26.15,26.3 -52.76,72.8 -52.76,124.79 0,33.13 2.28,32.84 8.93,61.41 -5.88,3.93 -148.76,148.2 -161.07,160.52l-40.2 40.2c-3.86,3.86 -10.89,9.07 -10.89,15.91l0 99.38c0,2.68 1.1,5.41 2.84,7.77 202.99,-199.01 376.86,-369.47 518.14,-507.98z"/>
   <path class="fil2" d="M375.05 182.55c0.3,0.77 -0.01,0.41 -2.96,1.69l-15.31 6.62c-7.82,3.32 -6.99,4.96 -6.77,15.48 0.04,1.98 -0,3.7 0.03,5.69 0.03,2 0.01,3.65 0.03,5.69 0.06,7.74 -0.1,15.2 0.04,22.76 0.03,1.8 0.03,3.65 0.03,5.4l0.07 28.45c0.1,5.51 -1.05,8.23 4.02,11.16 4.15,2.39 8.16,-2.22 10.52,-4.31l123.93 -111.21c3.31,-2.93 18.08,-15.66 19.59,-18.27 1.98,-3.44 0.63,-6.82 -2.95,-8.89 -1.79,-1.04 -118.76,-25.37 -137.65,-29.24 -4.27,-0.87 -8.42,-1.85 -12.68,-2.72l-31.36 -6.54c-2.14,-0.44 -4.33,-1.02 -6.36,-1.43 -5.1,-1.04 -9.09,-2.82 -12.15,2.48 -2.26,3.92 0.89,7.43 2.54,10.42 7.14,12.94 15.34,26.27 22.47,39.24l8.53 14.8c10.12,17.86 7.03,16.36 23.17,14.41 1.56,-0.19 12.9,-1.28 13.22,-1.67z"/>
   <path class="fil2" d="M261.29 208.48c-1.67,2.89 -0.47,7.36 2.42,9.03 3.44,1.99 14.32,-1.99 18.26,-3.04 13.7,-3.67 32.11,-8.21 45.16,-12.08 3.22,-0.96 5.44,-4.59 4.54,-7.93 -0.86,-3.22 -4.4,-5.33 -7.63,-4.66l-54.18 14.53c-2.6,0.7 -6.84,1.16 -8.57,4.15z"/>
   <path class="fil2" d="M294.85 232.79c-2.91,5.03 0.72,9.07 4.04,9.81 3.34,0.75 16.36,-3.46 20.43,-4.55 2.82,-0.76 7.97,-1.55 9.63,-4.43 1.71,-2.96 1.09,-7 -2.76,-9.23 -3.31,-1.91 -11.15,1.14 -16.13,2.47 -5,1.34 -13.3,2.62 -15.21,5.93z"/>
   <path class="fil2" d="M279.6 179.09c3.96,2.29 5.12,1.33 9.18,0.25 2.79,-0.75 5.18,-1.39 7.97,-2.14 5,-1.34 13.3,-2.61 15.21,-5.93 1.04,-1.79 1.47,-2.72 0.89,-5.08 -0.02,-0.08 -0.05,-0.19 -0.07,-0.27 -2.04,-7.14 -9.71,-4.09 -13.33,-3.12 -3.5,0.94 -18.03,4.32 -20.02,6.04 -1.56,1.35 -2.47,3.42 -2.38,5.23 0.07,1.42 0.96,4.07 2.57,5z"/>
   <path class="fil3" d="M363.49 264.79c-0.43,-0.98 -0.69,-55.59 -0.45,-62.23 1.32,-0.83 2.37,-1.18 3.79,-1.79l27.04 -11.72c5.33,-2.27 10.23,-4.46 15.56,-6.73 2.69,-1.15 5.06,-2.15 7.64,-3.35 2.17,-1.01 6.06,-1.95 7.59,-4.6 1.78,-3.08 0.66,-7.25 -2.42,-9.03 -2.52,-1.45 -6.22,-0.51 -8.6,-0.22 -2.94,0.36 -5.38,0.57 -8.29,0.92 -5.75,0.7 -11.09,1.26 -16.84,1.95l-33.73 3.75 -27.04 -47.13c-0.85,-1.54 -3.56,-5.84 -3.68,-6.98 3.27,0.99 6.76,1.33 10.28,2.25l30.77 6.47c37.57,7.68 75.5,16.31 112.86,23.85 3.39,0.68 7.43,1.27 10.56,2.22l-125.05 112.36z"/>
  </g>
 </g>
</svg>
