<?xml version="1.0" encoding="UTF-8"?>
<!DOCTYPE svg PUBLIC "-//W3C//DTD SVG 1.1//EN" "http://www.w3.org/Graphics/SVG/1.1/DTD/svg11.dtd">
<!-- Creator: CorelDRAW 2018 (64-Bit Evaluation Version) -->
<svg xmlns="http://www.w3.org/2000/svg" xml:space="preserve" width="1.88976in" height="1.88976in" version="1.1" style="shape-rendering:geometricPrecision; text-rendering:geometricPrecision; image-rendering:optimizeQuality; fill-rule:evenodd; clip-rule:evenodd"
viewBox="0 0 1781.82 1781.82"
 xmlns:xlink="http://www.w3.org/1999/xlink">
 <defs>
  <style type="text/css">
   <![CDATA[
    .fil1 {fill:#FEFEFE}
    .fil0 {fill:url(#id0)}
   ]]>
  </style>
  <linearGradient id="id0" gradientUnits="userSpaceOnUse" x1="-0" y1="890.91" x2="2061.48" y2="1753.31">
   <stop offset="0" style="stop-opacity:1; stop-color:#008F4F"/>
   <stop offset="1" style="stop-opacity:1; stop-color:#0098DA"/>
  </linearGradient>
 </defs>
 <g id="Layer_x0020_1">
  <metadata id="CorelCorpID_0Corel-Layer"/>
  <g id="_2085678027936">
   <path class="fil0" d="M1781.82 890.91c0,-492.03 -398.87,-890.91 -890.91,-890.91 -492.03,0 -890.91,398.87 -890.91,890.91 0,492.03 398.87,890.91 890.91,890.91 492.03,0 890.91,-398.87 890.91,-890.91z"/>
   <g>
    <path class="fil1" d="M735.39 1057.23l312.29 0c29.17,0 58.74,5.27 80.33,13.37 51.81,19.43 118.33,69.62 91.49,129.81 -19.31,43.33 -89.46,86.37 -136.33,103.1 -132.81,47.38 -360.3,46.35 -471.94,-49.25 -24.38,-20.88 -57.83,-50.2 -53.68,-85.93 4.47,-38.32 33.89,-62.32 62.24,-80.96 30.01,-19.75 76.05,-30.13 115.6,-30.13zm-291.49 114.51c0,39.49 12.36,71.93 31.75,100.98 9.48,14.23 29.71,39.03 41.88,49.19l24.13 20.12c15.88,12.38 36.26,27.59 54.03,37.06 68.6,36.58 168.69,66.79 248.98,65.93 19.22,-0.21 26.94,2.58 44.19,2.71l83.43 -5.25c95.94,-6.42 190.18,-41.23 265.01,-96.74 122.19,-90.59 140.83,-229.23 12.78,-334.78 -40.94,-33.74 -115.27,-65.66 -189.38,-65.66l-335.73 0c-103.12,0 -201.87,52.23 -250.36,129.62 -15.09,24.09 -30.72,58.9 -30.72,96.82z"/>
    <path class="fil1" d="M724.98 612.17c0,-21.03 7.36,-48.08 14.08,-63.98 14.69,-34.94 44.15,-66.64 77.83,-83.52 53.01,-26.55 123.09,-21.62 171.73,13.98 128.19,93.82 66.58,300.09 -99.7,300.09 -66.33,0 -126.77,-44.74 -149.16,-98.08 -7.22,-17.23 -14.79,-45.49 -14.79,-68.49zm-111.93 -5.2c0,114.91 63.58,211.36 155.22,256.01 77.2,37.6 167.06,36.99 244.76,0.84 14.33,-6.67 29.29,-17.1 41.99,-25.68 118.88,-80.39 154.07,-256.87 64.02,-385.8 -40.44,-57.92 -122.36,-110.78 -193.83,-115.86 -42.51,-3.02 -48.12,-4.74 -93.82,4.76 -121.2,25.22 -218.34,140.15 -218.34,265.72z"/>
   </g>
  </g>
 </g>
</svg>
