<?xml version="1.0" encoding="UTF-8"?>
<!DOCTYPE svg PUBLIC "-//W3C//DTD SVG 1.1//EN" "http://www.w3.org/Graphics/SVG/1.1/DTD/svg11.dtd">
<!-- Creator: CorelDRAW 2018 (64-Bit Evaluation Version) -->
<svg xmlns="http://www.w3.org/2000/svg" xml:space="preserve" width="1.8896in" height="1.88976in" version="1.1" style="shape-rendering:geometricPrecision; text-rendering:geometricPrecision; image-rendering:optimizeQuality; fill-rule:evenodd; clip-rule:evenodd"
viewBox="0 0 1182.03 1182.13"
 xmlns:xlink="http://www.w3.org/1999/xlink">
 <defs>
  <style type="text/css">
   <![CDATA[
    .fil0 {fill:#F58634}
   ]]>
  </style>
 </defs>
 <g id="Layer_x0020_1">
  <metadata id="CorelCorpID_0Corel-Layer"/>
  <path class="fil0" d="M590.24 773.7c0,-59.75 51.57,-108.8 110.78,-108.66 59.64,0.14 110.87,48.41 110.87,108.66 0,148.77 -221.64,152.41 -221.64,0zm-124.31 -398.87c-21.14,9.43 -27.65,28.83 -19.14,48.18 6.54,14.86 26.44,26.14 47,17.81 43.5,-17.61 16.24,-85.67 -27.86,-65.99zm222.48 368.59c-49.78,23.44 -12.7,81.32 25.35,66.79 45.66,-17.44 17.69,-87.06 -25.35,-66.79zm49.61 -743.41l7.47 0c17.28,1.97 25.97,18.81 54.3,53.6 11.91,14.63 50.59,69.23 65.88,73.58 33.64,9.58 135.89,12.14 156.51,32.76 15.98,15.98 17.57,61.82 22.38,90.52 14.77,88.11 -0.43,62.87 56.83,109.2l60.44 49.14c35.14,27.27 17.85,51.25 -5.79,109.68 -34.24,84.65 -34.6,60.85 0.45,148.02 40.64,101.06 33.5,81.8 -26.76,134.5 -83.93,73.38 -68.71,26.83 -85.16,134 -17.64,114.91 -2.46,93.36 -157.53,118.08 -21.93,3.49 -25.27,-0.46 -37.59,15.54 -61.6,80.02 -81.61,109.75 -105.83,113.5l-11.52 0c-15.88,-2.15 -35.75,-12.26 -69.41,-25.15 -12.4,-4.75 -66.37,-26.28 -71.73,-26.45 -4.62,-0.15 -61.3,21.66 -72.03,25.97 -33.02,13.28 -53.8,24.01 -70.95,25.63l-8.52 0c-11.76,-1.22 -22.38,-7.85 -35.17,-22.44 -107.5,-122.53 -42.79,-94.98 -158.11,-114.18 -107.67,-17.92 -91.39,-1.5 -109.59,-109.57 -2.89,-17.14 -4.79,-31.72 -7.55,-48.9 -3.94,-24.49 1.29,-23.24 -16.48,-36.65l-91.87 -74.16c-9.02,-8.26 -20.7,-17.21 -20.7,-32.42 0,-36.59 54.36,-133.83 51.35,-154.95 -4.05,-28.39 -51.35,-112.48 -51.35,-150.55 0,-18.56 12.96,-24.13 23.71,-32.74l61.89 -51.01c43.04,-37.63 36.12,-14.93 44.38,-65.2 5.15,-31.35 13.37,-119.64 30.57,-132.14 15.35,-11.15 64.46,-15.54 89.96,-19.62 47.28,-7.58 67.26,-4.59 83.53,-26.04 16.69,-22 31.69,-39.38 48.88,-60.7 50.63,-62.8 37.52,-63.05 135.06,-24.26 85.35,33.94 60.39,33.95 148.03,-1.47 37.11,-15 57.7,-23.74 72.01,-25.13zm-275.64 298.03c63,-11.26 116.9,35.53 126.74,89.22 12,65.48 -34.94,120.03 -88.79,129.31 -146.75,25.29 -184.86,-192.27 -37.95,-218.53zm302.79 0.41c28.27,-9.01 66.71,18.82 33.86,65.55 -18.2,25.9 -36.32,50.65 -53.92,75.59l-269.83 377.67c-11.48,15.63 -40.76,63.22 -58.01,68.45 -38.35,11.63 -63.49,-28.75 -35.61,-65.72 85.34,-113.2 184.48,-259.01 269.92,-377.56 17.97,-24.94 35.86,-49.63 53.9,-75.56 13.22,-19 38.32,-61.61 59.71,-68.43z"/>
 </g>
</svg>
