<?xml version="1.0" encoding="UTF-8"?>
<!DOCTYPE svg PUBLIC "-//W3C//DTD SVG 1.1//EN" "http://www.w3.org/Graphics/SVG/1.1/DTD/svg11.dtd">
<!-- Creator: CorelDRAW 2018 (64-Bit Evaluation Version) -->
<svg xmlns="http://www.w3.org/2000/svg" xml:space="preserve" width="1.88976in" height="1.88976in" version="1.1" style="shape-rendering:geometricPrecision; text-rendering:geometricPrecision; image-rendering:optimizeQuality; fill-rule:evenodd; clip-rule:evenodd"
viewBox="0 0 1781.82 1781.82"
 xmlns:xlink="http://www.w3.org/1999/xlink">
 <defs>
  <style type="text/css">
   <![CDATA[
    .fil1 {fill:#FEFEFE}
    .fil0 {fill:url(#id0)}
   ]]>
  </style>
  <linearGradient id="id0" gradientUnits="userSpaceOnUse" x1="-0" y1="890.91" x2="2061.48" y2="1753.31">
   <stop offset="0" style="stop-opacity:1; stop-color:#008F4F"/>
   <stop offset="1" style="stop-opacity:1; stop-color:#0077BD"/>
  </linearGradient>
 </defs>
 <g id="Layer_x0020_1">
  <metadata id="CorelCorpID_0Corel-Layer"/>
  <g id="_2085122156480">
   <path class="fil0" d="M1781.82 890.91c0,-492.03 -398.87,-890.91 -890.91,-890.91 -492.03,0 -890.91,398.87 -890.91,890.91 0,492.03 398.87,890.91 890.91,890.91 492.03,0 890.91,-398.87 890.91,-890.91z"/>
   <g>
    <path class="fil1" d="M371.4 477.93l0 9.28c0,9.67 60.65,60.88 69.6,74.24l-30.07 46.49c-14.96,25.98 -31.87,59.31 -42.17,87.75 -50.14,138.41 -47.93,301.67 18.09,432.64 15.28,30.31 29.4,57.39 48.86,83.39 26.7,35.67 29.47,40.92 61.56,73.01l33.64 31.32c28.92,27.57 86.76,60.95 122.75,79.09 49.56,24.98 141.04,52.57 214.24,52.57 86.79,0 143.11,-4.86 223.42,-36.42 54.69,-21.49 48.84,-19.93 17.09,-83.45 -32.07,-64.14 -14.31,-16.3 -165.56,4.58 -44.26,6.11 -101.78,2.97 -143.59,-6.32 -39.4,-8.76 -81.78,-22.99 -116.21,-41.56 -34.14,-18.41 -63.77,-39.89 -91.8,-65.97l-72.76 -85.01c-76.78,-115 -89.78,-251.38 -49.96,-382.19 10.71,-35.18 32.97,-77.82 53.67,-108.73 22.23,14.89 53.67,62.64 71.92,62.64 8.48,0 18.56,-6.4 18.56,-13.92l0 -208.81c0,-11.22 -7.34,-18.56 -18.56,-18.56l-208.8 0c-5.59,0 -13.92,8.33 -13.92,13.92z"/>
    <path class="fil1" d="M649.8 399.05c0,11.23 18.52,44 23.98,54.91 9.7,19.39 14.64,39.93 40.9,28.65 120.09,-51.6 268.18,-48.05 384.45,14.65 22.91,12.35 50.75,30.81 71.09,47.23 28.75,23.2 55.44,50.56 77.52,80.24 113.07,152.06 118.02,356.45 12.23,514.42 -28.45,-19.05 -49.09,-62.64 -76.56,-62.64 -7.52,0 -13.92,10.08 -13.92,18.56l0 204.17c0,11.22 7.34,18.56 18.56,18.56l208.81 0c12.3,0 13.92,-14.45 13.92,-23.2 0,-9.67 -60.65,-60.88 -69.6,-74.24 3.48,-6.58 5.35,-9.37 9.96,-15.56 53.19,-71.57 96.77,-199.25 96.77,-290.68l0 -44.08c0,-136.55 -67.65,-277.61 -161.83,-371.79 -51.49,-51.49 -90.95,-77.95 -156.01,-110.79 -56.84,-28.69 -147.74,-53.35 -215.78,-53.35 -88.37,0 -139.76,4.54 -221.75,35.78 -9.03,3.44 -16.05,6.11 -24.92,9.88 -7.79,3.31 -17.83,9.68 -17.83,19.3z"/>
    <path class="fil1" d="M686.92 946.59c0,11.22 7.34,18.56 18.56,18.56l146.17 0c0,17.68 -3.82,38.92 -4.62,55.7 -2.41,50.62 -11.62,124.3 -11.62,169.35 0,11.2 21.55,31.04 39.59,0.15 4.83,-8.27 9.94,-14.93 15.35,-24.09l118.61 -187.64c12.24,-18.95 86.3,-130.85 86.3,-143.39 0,-11.22 -7.34,-18.56 -18.56,-18.56l-146.16 0 8.93 -111.71c2.18,-20.22 1.06,-36.51 4.01,-56.32 2.5,-16.78 3.3,-39.46 3.3,-57.02 0,-11.2 -21.54,-31.04 -39.59,-0.15 -4.83,8.27 -9.94,14.93 -15.35,24.09l-88.91 140.79c-10.19,15.41 -19.41,30.91 -29.7,46.85l-29.64 46.93c-6.95,11.41 -56.66,84.67 -56.66,96.46z"/>
   </g>
  </g>
 </g>
</svg>
