<?xml version="1.0" encoding="UTF-8"?>
<!DOCTYPE svg PUBLIC "-//W3C//DTD SVG 1.1//EN" "http://www.w3.org/Graphics/SVG/1.1/DTD/svg11.dtd">
<!-- Creator: CorelDRAW 2018 (64-Bit Evaluation Version) -->
<svg xmlns="http://www.w3.org/2000/svg" xml:space="preserve" width="1.88977in" height="1.88977in" version="1.1" style="shape-rendering:geometricPrecision; text-rendering:geometricPrecision; image-rendering:optimizeQuality; fill-rule:evenodd; clip-rule:evenodd"
viewBox="0 0 514.04 514.04"
 xmlns:xlink="http://www.w3.org/1999/xlink">
 <defs>
  <style type="text/css">
   <![CDATA[
    .fil0 {fill:#0077BD}
    .fil1 {fill:#FEFEFE}
   ]]>
  </style>
 </defs>
 <g id="Layer_x0020_1">
  <metadata id="CorelCorpID_0Corel-Layer"/>
  <g id="_2085541895392">
   <path class="fil0" d="M412.83 514.04c20.53,-0 36.34,-4.24 52.84,-14.24 29.75,-18.03 48.39,-49.7 48.37,-85.96l0 -169.41 0 -141.01c0.01,-25.74 -7.78,-53.06 -25.34,-70.04 -1.05,-1.01 -1.55,-1.44 -2.52,-2.37 -8.23,-7.9 -10.66,-12.15 -23.66,-18.63 -16.62,-8.28 -28.04,-11.36 -40.08,-12.37l-42.92 0 -286.26 0c-24.6,0.61 -48.2,13.69 -63.87,29.37 -15.25,15.25 -28.62,38.97 -29.37,62.93l0 322.82c0.1,6.21 0.23,10.14 0.39,11.17 7.87,51.83 48.09,87.76 102.02,87.74l142.02 0 168.41 0z"/>
   <path class="fil1" d="M329.88 235.8c6.96,8.48 31,94.42 40.11,101.53 6.98,5.46 20.27,5.03 26.82,-0.3 4.62,-3.75 7.76,-16.81 10.17,-24.94 5.35,-18.07 10.97,-35.85 16.39,-53.88 5.45,-18.12 11.29,-36.54 16.62,-54.66 2.7,-9.18 6.47,-19.07 -0.48,-26.09 -5.84,-5.9 -17.4,-7.09 -24.97,-1.41 -6.04,4.53 -7.47,15.75 -10.1,25.07 -2.6,9.22 -5.14,18.35 -7.52,27.58 -4.64,17.96 -9.63,37.83 -15.24,55.17 -3.28,-5.24 -8.37,-22.61 -10.89,-29.67 -3.61,-10.07 -7.06,-20.49 -10.63,-30.53 -3.65,-10.28 -7.08,-20.05 -10.74,-30.42 -3.95,-11.19 -5.46,-20.66 -18.69,-21.21 -13.73,-0.57 -16.03,9.99 -19.9,20.8l-29.16 83.27c-1.23,3.82 -1.13,4.65 -3.33,7.12 -5.61,-16.94 -10.06,-36.97 -15.19,-54.94 -2.87,-10.06 -10.81,-48.12 -17.53,-52.68 -7.64,-5.19 -20.19,-4.13 -25.48,1.83 -6.51,7.34 -2.53,18.27 0.29,27.29l32.86 107.75c2.78,9.44 4.51,19.4 10.53,24.61 6.58,5.69 19.99,5.92 26.4,-0.19 7.12,-6.79 16.13,-37.05 20.8,-49.47 6.23,-16.56 13.89,-35.09 18.85,-51.63zm-222.84 -32.32c20.31,-0.62 46.13,-3.48 52.56,13.95 3.24,8.79 1.55,20.75 -3.51,26.49 -8.35,9.47 -34.34,7.69 -49.06,7.36l0.01 -47.8zm56.53 73.35c6.54,-5.1 8.02,-2.65 18.85,-13.62 5.16,-5.22 9.47,-12.27 11.89,-21.24 5.45,-20.21 -1.26,-38.89 -12.23,-50.03 -22.92,-23.29 -45.87,-19.27 -80.16,-19.3 -37.73,-0.03 -30.86,12.52 -30.85,68.32 0.01,22.09 0.01,44.18 0.02,66.26 0,10.21 -1.27,21.64 4.45,28.37 4.79,5.64 15,9.21 23.09,3.5 7.99,-5.63 8.41,-12.27 8.39,-24.85 -0.01,-10.73 0,-21.45 0,-32.17 20.14,-0.49 19.76,-1.87 25.21,5.89 7.08,10.09 38.85,49.55 42.14,51.2 16.33,8.18 32.82,-11.31 17.06,-29.08l-27.86 -33.25z"/>
  </g>
 </g>
</svg>
