<?xml version="1.0" encoding="UTF-8"?>
<!DOCTYPE svg PUBLIC "-//W3C//DTD SVG 1.1//EN" "http://www.w3.org/Graphics/SVG/1.1/DTD/svg11.dtd">
<!-- Creator: CorelDRAW 2018 (64-Bit Evaluation Version) -->
<svg xmlns="http://www.w3.org/2000/svg" xml:space="preserve" width="0.625016in" height="0.625016in" version="1.1" style="shape-rendering:geometricPrecision; text-rendering:geometricPrecision; image-rendering:optimizeQuality; fill-rule:evenodd; clip-rule:evenodd"
viewBox="0 0 65.75 65.75"
 xmlns:xlink="http://www.w3.org/1999/xlink">
 <defs>
  <style type="text/css">
   <![CDATA[
    .fil0 {fill:black}
   ]]>
  </style>
 </defs>
 <g id="Layer_x0020_1">
  <metadata id="CorelCorpID_0Corel-Layer"/>
  <path class="fil0" d="M5.98 4.37l12.74 0 0 0.03c-0.75,1.16 -1.18,1.77 -1.27,1.85l-3.4 0c0.47,0.55 0.79,1.22 0.95,2l3.63 0c0.05,0.01 0.07,0.03 0.07,0.05 -0.81,1.22 -1.23,1.83 -1.24,1.83l-2.36 0c-0.05,0.63 -0.35,1.38 -0.9,2.27 -0.72,0.9 -1.42,1.47 -2.08,1.74 -1.23,0.59 -2.42,0.89 -3.55,0.89l0 0.03c0,0.09 2.55,3.12 7.67,9.1l-3.38 0c-4.98,-5.8 -7.47,-8.72 -7.47,-8.74l0 -1.76 0.03 -0.07c0.44,0.06 0.96,0.09 1.55,0.09 2.79,0 4.53,-0.91 5.21,-2.72 0.1,-0.27 0.16,-0.54 0.16,-0.82l-7.58 0c-0.04,0 -0.05,-0.02 -0.05,-0.05 0.84,-1.22 1.27,-1.83 1.29,-1.83l6.01 0 0 -0.03c-0.34,-0.7 -1.01,-1.24 -2,-1.63 -0.71,-0.23 -1.34,-0.34 -1.91,-0.34l-3.36 0 0 -0.07c0.81,-1.21 1.23,-1.81 1.26,-1.81zm33.04 49.03l0 0zm0 0c0.17,-2.07 3.42,-4.99 6.12,-5.81 3.11,-0.95 3.64,-0.44 5.23,-0.74 1.93,-0.36 1.49,-2.21 1.49,-4.48 1.02,0.27 2.27,2.16 3.03,2.94 0.83,0.86 2.36,2.16 2.94,3.03l-4.3 4.57c-0.52,0.52 -0.92,1.2 -1.67,1.4 0,-1.82 0.33,-3.76 -0.92,-4.33 -0.77,-0.35 -3.54,0.17 -4.49,0.36 -3.02,0.62 -5.06,1.81 -7.43,3.06zm-3.44 0.36c0,1.38 1.6,4.51 5.44,2.18 1.88,-1.14 5.31,-2.67 7.59,-2.72 0,1.21 0.01,2.31 0.77,3.21 1.56,1.87 4,1.32 5.7,-0.54l2.08 -2.26c2.07,-2.07 3.93,-3.09 3.93,-5.65 0,-1.53 -3.89,-4.77 -5.92,-7.1 -1.88,-2.15 -4.56,-2.46 -5.94,-0.43 -0.77,1.13 -0.47,2.73 -0.7,3.1 -0.24,0.39 -1.73,0.31 -3.14,0.66 -3.04,0.75 -5.13,2.12 -7.22,4.35 -0.81,0.86 -2.57,3.66 -2.57,5.2zm-18.12 -37.45c0,0.87 0.53,1.28 1.41,1.28l5.14 0c1.62,0 1.57,-2.31 0,-2.31 -1.45,0 -5.46,-0.25 -6.11,0.31 -0.12,0.11 -0.44,0.6 -0.44,0.72zm0 5.65c0,0.73 0.73,1.16 1.54,1.16l22.22 0c2.21,0 1.77,-2.31 0.39,-2.31l-22.99 0c-0.65,0 -1.16,0.56 -1.16,1.16zm7.83 12.07l5.39 0 0 20.68 -5.39 0 0 -20.68zm-8.86 0l6.55 0 0 20.68 -6.55 0 0 -20.68zm-8.73 19.65l0 -19.65 6.55 0 0 20.68 -5.78 0c-0.42,0 -0.77,-0.56 -0.77,-1.03zm23.63 -21.96l-23.63 0c0,-1.35 -0.33,-3.21 1.16,-3.21l30.31 0c1.51,0 1.28,0.92 1.28,2.18l-6.81 0c-1.21,0 -1.94,1.03 -2.31,1.03zm-25.94 -1.67l0 23.24c0,1.1 0.33,2 0.86,2.6 0.54,0.6 1.37,1.12 2.48,1.12l21.96 0 0 2.18 -28.51 0 0 -56.89 43.79 0 0 28.38 -3.21 0 0 -1.28c0,-1.5 -1.46,-3.08 -2.95,-3.08l-31.34 0c-0.98,0 -1.73,0.57 -2.22,1.12 -0.57,0.64 -0.87,1.44 -0.87,2.6zm-5.39 -28.12l0 57.4c0,1.12 0.94,2.05 2.05,2.05l28.64 0 0 1.41c0,1.46 1.49,2.95 2.95,2.95l29.15 0c1.43,0 2.95,-1.52 2.95,-2.95l0 -29.15c0,-1.43 -1.52,-2.95 -2.95,-2.95l-14.51 0 0 -28.38c0,-1.23 -0.94,-2.31 -2.18,-2.31l-44.18 0c-0.9,0 -1.93,1.02 -1.93,1.93z"/>
 </g>
</svg>
